<?xml version="1.0" standalone="no"?>
<!DOCTYPE svg PUBLIC "-//W3C//DTD SVG 1.1//EN" "http://www.w3.org/Graphics/SVG/1.1/DTD/svg11.dtd" >
<svg xmlns="http://www.w3.org/2000/svg">
<metadata>
Created by FontPrep 20130207 at Wed Nov  9 22:55:18 2016
 By Agustina Minos
Copyright   2002, Underware. All rights reserved.
</metadata>
<defs>
<font id="98bcddc4bc9894d18c7f9a0cfb411bc7" horiz-adv-x='1024' >
  <font-face 
    font-family="Sauna-Italic"
    font-weight="400"
    font-style="italic"
    font-stretch="normal"
    units-per-em="2048"
    panose-1="2 0 5 6 5 0 0 9 0 4"
    ascent="1638"
    descent="-410"
    x-height="805"
    cap-height="1061"
    bbox="-158 -454 2058 1870"
    underline-thickness="40"
    underline-position="-252"
    slope="-11"
    unicode-range="U+0005-2122"
  />
<missing-glyph horiz-adv-x="1904" 
 />
    <glyph glyph-name=".notdef" horiz-adv-x="1904" 
 />
    <glyph glyph-name=".null" horiz-adv-x="0" 
 />
    <glyph glyph-name="nonmarkingreturn" horiz-adv-x="0" 
 />
    <glyph glyph-name="breve" horiz-adv-x="864" 
d="M711 1159q0 -48 -79.5 -97.5t-199.5 -49.5t-199 48.5t-79 113.5q0 46 55 57q45 -45 97 -77t124 -32q126 0 229 99q52 -14 52 -62z" />
    <glyph glyph-name="dotaccent" horiz-adv-x="632" 
d="M346 1153q74 0 74 -68q0 -39 -24.5 -61.5t-71.5 -22.5q-78 0 -78 52.5t26.5 76t73.5 23.5z" />
    <glyph glyph-name="ring" horiz-adv-x="624" 
d="M246 1065q0 -53 57 -53q74 -1 74 69q0 27 -15.5 41.5t-39.5 14.5q-76 0 -76 -72zM340 1214q129 0 129 -128q0 -74 -52.5 -111t-118.5 -37q-146 0 -146 119q0 84 55 120.5t133 36.5z" />
    <glyph glyph-name="hungarumlaut" unicode="&#xa;" horiz-adv-x="944" 
d="M526 1020q0 33 9.5 47t35.5 31l326 186q55 -19 55 -68t-37 -67l-352 -172q-37 10 -37 43zM125 1020q0 33 9 47t36 31l326 186q55 -19 55 -68t-37 -67l-352 -172q-37 10 -37 43z" />
    <glyph glyph-name="ogonek" horiz-adv-x="641" 
d="M457 -272q0 -62 -103 -62q-155 0 -155 109q0 60 82 260l102 -29q-59 -167 -59 -203q0 -35 27.5 -41t51.5 -6l43 4q11 -12 11 -32z" />
    <glyph glyph-name="caron" horiz-adv-x="833" 
d="M651 1217q0 -16 -9 -33t-48 -64l-88 -110q-27 -33 -50.5 -47.5t-63.5 -14.5t-70 15l-136 254q16 45 61 45q46 0 58 -18q44 -64 109 -202l172 213q65 0 65 -38z" />
    <glyph glyph-name="dotlessi" unicode="&#xd;" horiz-adv-x="475" 
d="M233 -6q-114 0 -114 96q0 51 12 135l70 486l-129 -4q-14 11 -14 39q-1 61 178 61q59 0 77.5 -15.5t12.5 -60.5l-43 -317q-14 -102 -24.5 -178t-10.5 -103t10 -34t45 -7t84 14q16 -12 16 -45q0 -67 -170 -67z" />
    <glyph glyph-name="fraction" horiz-adv-x="1107" 
d="M969 1092q45 61 94 61t63 -45l-888 -1159q-29 -39 -73 -39t-65 41z" />
    <glyph glyph-name="fi" horiz-adv-x="858" 
d="M690 1135q0 -29 -22 -52q-80 33 -155 33t-101.5 -12t-39.5 -34q-33 -57 -59 -271l344 10q59 2 73.5 -15.5t8.5 -62.5l-43 -317q-34 -248 -34 -278t10 -37t43 -7t86 14q16 -12 16 -45q0 -67 -170 -67q-57 0 -84.5 22.5t-27.5 73.5t12 135l69 484l-317 -9l-63 -641
q-33 -329 -139.5 -372t-164.5 -43t-74 15t-16 43t15 42q94 0 133.5 9t59.5 38q42 62 65 289l59 616l-104 -2q-12 12 -12 43t32.5 43.5t97.5 16.5q27 236 100.5 324.5t237.5 88.5t164 -75z" />
    <glyph glyph-name="fl" horiz-adv-x="915" 
d="M684 -6q-117 0 -117 86q0 57 15 145l114 860q-57 25 -143 25q-148 0 -186 -59q-29 -52 -54 -254l193 2q10 -20 10 -48q0 -57 -113 -57h-47q-23 0 -57 2l-63 -637q-33 -334 -139.5 -374.5t-164.5 -40.5t-74 15t-16 43t15 42q94 0 133.5 9t59.5 38q42 62 65 289l59 616
l-102 -2q-14 14 -14 44t32.5 42.5t97.5 16.5q27 242 102.5 327.5t224.5 85.5t194 -41q10 47 25.5 61.5t47.5 14.5t58 -18l-111 -813q-14 -102 -24.5 -178t-10.5 -103t10.5 -34t47.5 -7t82 14q20 -14 20 -45q0 -67 -170 -67z" />
    <glyph glyph-name="Lslash" horiz-adv-x="776" 
d="M627 710q0 -57 -64 -75l-254 -78l-53 -407q-4 -29 6 -37.5t53 -8.5h408q8 -16 8 -40t-11 -36t-58.5 -21t-198.5 -9q-205 0 -257 6t-68 16q-17 10 -17 66t43 381l6 49l-57 -16q-37 16 -37 44t10 38t31 16l67 23q10 84 22.5 168.5t22.5 171.5l-131 2q-8 14 -8 30
q0 68 140 68q104 0 122.5 -9.5t14.5 -33.5l-45 -352l213 67l61 23q31 -16 31 -46z" />
    <glyph glyph-name="lslash" horiz-adv-x="448" 
d="M504 885q0 -55 -66 -76l-137 -41l-47 -354q-14 -102 -24.5 -178t-10.5 -103t10.5 -34t44.5 -7t84 14q27 -12 27 -43q0 -69 -182 -69q-57 0 -85 22.5t-28 73.5t12 135l68 504l-68 -20q-36 16 -36 51t40 47l78 27l33 243q10 70 24.5 93.5t53.5 23.5t61 -14l-41 -303l95 32
l61 23q33 -22 33 -47z" />
    <glyph glyph-name="Zcaron" horiz-adv-x="942" 
d="M877 1471.5q0 -27.5 -9.5 -45t-46.5 -64.5l-90 -111q-51 -59 -102 -59t-82 14l-133 252q12 45 59 45t58 -17q21 -33 60.5 -105.5t47.5 -94.5l174 213q64 0 64 -27.5zM887 56q0 -56 -109 -56h-90l-278 2h-344q-25 33 -25 69t12.5 57.5t40.5 51.5l604 658q29 31 57.5 61.5
t59.5 58.5h-661q-24 28 -13 60t47.5 37.5t77.5 5.5l654 -2q22 -26 22 -63q0 -36 -11 -59.5t-42 -57.5l-635 -699q-30 -32 -84 -82l702 2q15 -14 15 -44z" />
    <glyph glyph-name="zcaron" horiz-adv-x="729" 
d="M698 736q0 -38 -23.5 -73.5t-84.5 -101.5l-432 -465h504q14 -14 14 -41q0 -59 -113 -59q-300 0 -514 8q-22 35 -22 68t14 54t59 69l471 510h-442q-10 15 -10 43t23.5 42.5t95.5 14.5h434q26 -31 26 -69zM733 1217q0 -16 -9 -33t-48 -64l-88 -110q-51 -62 -102 -62t-83 15
l-135 254q16 45 72 45q33 0 46 -18t28.5 -44t31 -56t28.5 -57.5t22 -44.5l172 213q65 0 65 -38z" />
    <glyph glyph-name="space" unicode=" " horiz-adv-x="391" 
 />
    <glyph glyph-name="space" unicode="&#xa0;" horiz-adv-x="391" 
 />
    <glyph glyph-name="exclam" unicode="!" horiz-adv-x="481" 
d="M246 170q82 0 82 -76q0 -94 -107 -94q-88 0 -88 58.5t30 85t83 26.5zM215 416v20t4 27l76 616q6 45 21.5 63.5t54.5 18.5t69 -18l-106 -766q-20 -8 -70 -8t-49 47z" />
    <glyph glyph-name="quotedbl" unicode="&#x22;" horiz-adv-x="729" 
d="M558 733q-44 0 -73 15l31 290q4 29 16 48.5t52 19.5t65 -21l-39 -303q-8 -49 -52 -49zM222 733q-44 0 -72 15l30 290q4 29 17 48.5t53 19.5t65 -21l-10 -55l-31 -248q-8 -49 -52 -49z" />
    <glyph glyph-name="numbersign" unicode="#" horiz-adv-x="847" 
d="M549 485l-211 2l-25 -178h211zM805 538q0 -51 -90 -55h-64l-24 -174l147 2q12 -30 12 -58q0 -54 -96 -54h-78l-22 -164q-4 -27 -16.5 -34t-40.5 -7t-50 16l27 191l-211 2l-23 -168q-4 -27 -17 -34t-42 -7t-49 16l29 195l-123 2q-12 18 -13 49q0 53 64 53h86l25 180
l-144 3q-14 20 -14 49q0 53 63 53h107l16 125q6 57 20.5 75.5t45.5 18.5t53 -12l-14 -80l-17 -127h209l17 125q6 57 19 75.5t45 18.5t54 -12l-12 -80l-16 -127l125 2q12 -30 12 -58z" />
    <glyph glyph-name="dollar" unicode="$" horiz-adv-x="727" 
d="M117 178q81 -92 257 -92q71 0 114.5 34t43.5 84t-35 80t-113 58q-143 50 -192 101.5t-49 142.5q0 92 72 155.5t188 77.5l15 142q9 65 52 65t73 -16l-23 -189q166 -17 166 -90q0 -29 -11 -42t-34 -21q-68 55 -179 55q-110 0 -156 -39t-46 -78t8 -60.5t36.5 -44.5
t158.5 -71q114 -48 149 -89t35 -96q0 -104 -67 -173.5t-201 -77.5l-14 -166q-4 -47 -48 -47t-67 18l24 197q-145 8 -184 45t-39 67q0 52 66 70z" />
    <glyph glyph-name="percent" unicode="%" horiz-adv-x="1417" 
d="M1114 389q-158 0 -158 -184q0 -131 121 -131q110 0 132 72.5t22 116.5t-28.5 85t-88.5 41zM850 197q0 117 71 197.5t191 80.5q225 0 225 -211q0 -118 -77 -197t-191 -79q-219 0 -219 209zM348 733q-158 0 -158 -184q0 -131 121 -131q74 0 114 54t40 116q0 63 -28.5 104
t-88.5 41zM303 332q-219 0 -219 209q0 117 71 197.5t191 80.5q225 0 225 -211q0 -116 -76.5 -196t-191.5 -80zM1094 885q56 0 71 -45l-782 -891q-34 -39 -75.5 -39t-61.5 41l762 872q27 29 45.5 45.5t40.5 16.5z" />
    <glyph glyph-name="ampersand" unicode="&#x26;" horiz-adv-x="1073" 
d="M1016 462q0 -30 -26 -43t-64 -19t-61 -8.5t-46 -4.5q37 -57 37 -125q0 -126 -119 -200t-331 -74q-147 0 -235.5 60.5t-88.5 189.5q0 209 118.5 265t192.5 60q-82 4 -130 52.5t-48 127.5q0 147 111 233.5t270 86.5q92 0 136 -16.5t44 -50.5t-24 -62q-74 24 -176 24
q-101 0 -168.5 -46t-67.5 -139t59.5 -127t165.5 -34h15q12 -20 12 -50t-19.5 -43t-83.5 -13q-135 0 -209.5 -62.5t-74.5 -173.5q0 -182 233 -182q152 0 229.5 51.5t77.5 118.5q0 68 -17 113t-17 67q0 33 37 39q35 3 99 13l96 15t56 9q17 -22 17 -52z" />
    <glyph glyph-name="quotesingle" unicode="'" horiz-adv-x="395" 
d="M222 733q-44 0 -72 15l30 290q4 29 17 48.5t53 19.5t65 -21l-10 -55l-31 -248q-8 -49 -52 -49z" />
    <glyph glyph-name="parenleft" unicode="(" horiz-adv-x="565" 
d="M376 -340q-126 0 -200 143t-74 373q0 492 115 700.5t198 275.5t147 67q65 0 65 -45q0 -10 -4 -19q-192 -84 -291 -332.5t-99 -625.5t209 -480q0 -57 -66 -57z" />
    <glyph glyph-name="parenright" unicode=")" horiz-adv-x="565" 
d="M330 674q0 379 -209 485q1 59 67 59q125 1 199 -143.5t74 -374.5q0 -488 -115 -698.5t-205 -282.5q-83 -59 -143 -59q-61 0 -61 43q0 14 2 18q290 127 340.5 450t50.5 503z" />
    <glyph glyph-name="asterisk" unicode="*" horiz-adv-x="1001" 
d="M971 899q0 -25 -15 -41l-366 -31l192 -303q-4 -25 -36 -43t-48 -18t-28 4q-4 8 -28 59.5t-51.5 109.5t-49.5 105l-23 47l-239 -262h-5q-31 0 -60.5 27.5t-29.5 58.5q6 4 37 30t69 57.5t78 65.5t64.5 54.5t26.5 22.5l-342 139q-4 16 -4 33t17 44t42 36l320 -183l30 353
q18 14 44 14q62 0 83 -33l-80 -344l363 80q39 -20 39 -82z" />
    <glyph glyph-name="plus" unicode="+" horiz-adv-x="880" 
d="M160 463h229l29 217q7 61 56 61q48 0 71 -18l-41 -260h194l64 2q14 -14 14 -47q0 -58 -78 -58l-211 2l-26 -180q-13 -80 -61 -80q-54 0 -74 27l14 59l29 174l-254 3q-14 16 -15 49q0 49 60 49z" />
    <glyph glyph-name="comma" unicode="," horiz-adv-x="503" 
d="M123 96q0 68 86 68t134 -47t48 -103q0 -105 -43 -156t-97 -80.5t-98 -29.5t-44 37l2 12q92 53 124.5 92t32.5 84t-37.5 61.5t-99.5 24.5q-8 16 -8 37z" />
    <glyph glyph-name="hyphen" unicode="-" horiz-adv-x="569" 
d="M518 450q0 -53 -69 -57l-383 -14q-16 21 -16 45q-1 50 50 53l340 17l62 6q16 -22 16 -50z" />
    <glyph glyph-name="period" unicode="." horiz-adv-x="466" 
d="M246 170q84 0 84 -76q0 -45 -29 -69.5t-80 -24.5q-86 0 -86 58.5t29 85t82 26.5z" />
    <glyph glyph-name="slash" unicode="/" horiz-adv-x="643" 
d="M532 1116q24 53 70 53t66 -32l-29 -64l-442 -1075q-12 -33 -53 -33t-66 33z" />
    <glyph glyph-name="zero" unicode="0" horiz-adv-x="944" 
d="M182 358q0 -272 258 -272q156 0 240 109.5t84 255.5q0 188 -92 234t-169 46q-153 0 -237 -105.5t-84 -267.5zM57 346q0 201 125.5 340t345.5 139q182 0 270.5 -97t88.5 -257q0 -206 -131.5 -341.5t-329.5 -135.5q-265 0 -317 128t-52 224z" />
    <glyph glyph-name="one" unicode="1" horiz-adv-x="724" 
d="M633 62q0 -32 -34 -48t-134 -14l-377 2q-12 12 -12 34t7 33t44 23t190 12q8 59 17.5 139.5t34 261.5t24.5 197l-233 -127q-37 14 -37 43t20.5 51.5t67.5 49.5l106 57q77 43 127 43t68 -12t16 -37l-84 -666l183 2q6 -12 6 -44z" />
    <glyph glyph-name="two" unicode="2" horiz-adv-x="806" 
d="M414 727q-147 0 -252 -94q-47 6 -47 49q0 33 35 61q84 84 252 84t241.5 -65.5t73.5 -165.5q0 -68 -20.5 -120t-97 -127t-380.5 -249h512q14 -20 14 -45q0 -59 -83 -59h-12l-433 4h-176q-23 19 -23 53q0 33 39 56q139 80 239.5 139t198 137t97.5 186q0 72 -44 114t-134 42
z" />
    <glyph glyph-name="three" unicode="3" horiz-adv-x="763" 
d="M90 685q0 36 31 67q77 77 240 77t232 -67.5t69 -177.5t-69 -174t-177 -76q115 -4 176 -64t61 -149q0 -158 -111.5 -246t-297.5 -88q-127 0 -203 33t-76 84q0 33 27 51q114 -64 288.5 -64t211 80t36.5 147t-61 110.5t-211 41.5q-20 25 -20 61t32 40q143 12 205 60t62 149
q0 63 -37 105t-127 42q-141 0 -238 -86q-43 8 -43 44z" />
    <glyph glyph-name="four" unicode="4" horiz-adv-x="837" 
d="M571 647l-458 -553h395zM2 2q-16 21 -16 54q0 32 28 65l580 696q16 4 52 4t48.5 -20.5t5.5 -75.5l-65 -627l119 4q10 -20 10 -44t-19.5 -39t-85.5 -15h-34l-19 -182q-4 -33 -19 -42t-49 -9t-63 22l21 211z" />
    <glyph glyph-name="five" unicode="5" horiz-adv-x="788" 
d="M670 122q0 -166 -119 -250.5t-283 -84.5t-220 39t-56 74t26 55q121 -63 254 -64q273 0 273 224q0 115 -92.5 152.5t-193.5 37.5t-163 -6q-13 26 -8 55l59 453q147 0 293 -2t293 6q12 -23 12 -45q0 -74 -86 -74q-212 0 -430 4l-34 -288l73 2q279 0 340.5 -99.5
t61.5 -188.5z" />
    <glyph glyph-name="six" unicode="6" horiz-adv-x="858" 
d="M446 549q-150 0 -256 -148q0 -172 55.5 -247.5t169.5 -75.5t183.5 69.5t69.5 184.5q0 217 -222 217zM489 647q297 0 297 -304q0 -77 -58 -216t-333 -139q-232 0 -277.5 134t-45.5 270t36.5 265t134.5 258t326 129q150 0 214.5 -32.5t64.5 -83.5q0 -33 -27 -51
q-128 63 -268 63q-311 0 -358 -469q76 176 294 176z" />
    <glyph glyph-name="seven" unicode="7" horiz-adv-x="745" 
d="M748 752q0 -31 -18 -56t-58.5 -90t-93 -152t-110.5 -186.5t-111.5 -190.5t-94.5 -163t-57.5 -104.5t-54.5 -32.5t-54 10t-18 35q38 74 271 453.5t261 418.5l-524 -2q-18 20 -18 49t22.5 48.5t71.5 19.5l569 -4q17 -22 17 -53z" />
    <glyph glyph-name="eight" unicode="8" horiz-adv-x="868" 
d="M170 268q0 -186 215 -186q181 0 222.5 70.5t41.5 115.5q0 83 -49 131t-188 109q-121 -35 -181.5 -89t-60.5 -151zM686 803q0 162 -176 162q-102 0 -154.5 -49.5t-52.5 -137.5q0 -118 170 -184q153 45 183 103.5t30 105.5zM799 818q0 -106 -71 -167t-187 -90
q197 -88 216 -158.5t19 -126.5t-30.5 -114t-112.5 -116t-254 -58q-171 0 -250.5 67.5t-79.5 183.5q0 251 293 306q-78 39 -117 91t-39 129q0 142 96.5 216t240.5 74t210 -65.5t66 -171.5z" />
    <glyph glyph-name="nine" unicode="9" horiz-adv-x="854" 
d="M408 260q152 0 256 148q0 172 -55.5 247.5t-169.5 75.5t-183.5 -69.5t-69.5 -184.5q0 -217 222 -217zM365 162q-297 0 -297 304q0 76 58 215.5t333 139.5q229 0 276 -134t47 -270t-35.5 -261t-134.5 -247t-333 -122q-112 0 -169 25.5t-78.5 48t-21.5 52.5t29 42
q114 -64 257 -64t238.5 93.5t124.5 347.5q-81 -170 -294 -170z" />
    <glyph glyph-name="colon" unicode=":" horiz-adv-x="532" 
d="M238 250q81 0 81 -76q0 -45 -28.5 -69.5t-77.5 -24.5q-88 0 -88 58.5t29.5 85t83.5 26.5zM309 711q84 0 84 -78q0 -43 -28.5 -68.5t-79.5 -25.5q-88 0 -88 77q0 41 29.5 68t82.5 27z" />
    <glyph glyph-name="semicolon" unicode=";" horiz-adv-x="532" 
d="M190 164q86 0 134.5 -47t48.5 -103q0 -103 -51 -166q-35 -41 -89.5 -70.5t-98.5 -29.5t-44 37l2 12q92 53 125 92t33 84t-38 61.5t-99 24.5q-8 16 -9 37q0 68 86 68zM309 711q84 0 84 -78q0 -43 -28.5 -68.5t-77.5 -25.5q-88 0 -88 77q0 41 28.5 68t81.5 27z" />
    <glyph glyph-name="less" unicode="&#x3c;" horiz-adv-x="800" 
d="M586 49q0 -51 -60 -55l-401 323q-25 21 -25 67t50 79l538 350q16 -2 27.5 -18.5t11.5 -36.5q0 -45 -61 -86l-420 -287l299 -266q41 -38 41 -70z" />
    <glyph glyph-name="equal" unicode="=" horiz-adv-x="880" 
d="M750 236q0 -60 -78 -60l-584 6q-14 14 -14 47q0 51 57 52h541l63 2q15 -30 15 -47zM805 557q0 -59 -78 -59l-584 4q-14 20 -14 49q0 51 57 51h541l64 2q14 -28 14 -47z" />
    <glyph glyph-name="greater" unicode="&#x3e;" horiz-adv-x="800" 
d="M215 758q0 51 59 55l402 -324q24 -17 24 -53q0 -35 -10 -55.5t-37 -36.5l-540 -350q-16 2 -27.5 19t-11.5 37q0 44 61 85l420 287l-299 266q-41 38 -41 70z" />
    <glyph glyph-name="question" unicode="?" horiz-adv-x="821" 
d="M289 170q84 0 84 -76q0 -45 -29 -69.5t-80 -24.5q-88 0 -88 58.5t30 85t83 26.5zM207 1100q0 59 107 59q207 0 347 -107.5t140 -228.5q0 -91 -55 -136.5t-178 -83.5q-124 -38 -168 -56.5t-71.5 -45.5t-27.5 -105v-44q0 -12 2 -26q-16 -10 -47 -11q-74 0 -74 110t88 165
q72 47 212 86t166 60.5t31 37.5t5 46t-31.5 72t-131.5 102.5t-298 60.5q-16 20 -16 45z" />
    <glyph glyph-name="at" unicode="@" horiz-adv-x="1687" 
d="M897 686q-135 0 -205.5 -98t-70.5 -246t35.5 -201t121.5 -53q51 0 112.5 32t98.5 91l64 442q-63 33 -156 33zM1004 -197q0 -55 -99 -83.5t-216 -28.5q-248 0 -410 140.5t-162 440.5q0 375 222 611.5t609 236.5q326 0 475.5 -149.5t149.5 -399.5t-135.5 -413.5
t-327.5 -163.5q-59 0 -88 20.5t-29 62.5t11 79q-31 -72 -100.5 -118t-178.5 -46t-174.5 68t-65.5 208q0 256 114.5 385t276.5 129t183 -84q6 45 20.5 63.5t50.5 18.5t66 -20l-57 -441q-21 -155 -21 -181t9 -32t49 -6t90.5 32t119 129t68.5 306t-131 332t-417 123
t-473 -206.5t-187 -506.5q0 -256 119.5 -381t343.5 -125q142 0 266 50q29 -17 29 -50z" />
    <glyph glyph-name="A" unicode="A" horiz-adv-x="1026" 
d="M705 383l-140 491l-250 -491h390zM1026 66q0 -70 -154 -70q-31 0 -45 7t-22 34l-76 264h-453l-153 -299q-30 -6 -49 -6q-49 0 -49 43q0 23 28 72l473 899q16 31 29.5 41t40.5 10t43 -6l295 -961l78 6q14 -11 14 -34z" />
    <glyph glyph-name="B" unicode="B" horiz-adv-x="974" 
d="M420 84q334 0 334 229q0 183 -293 183q-78 0 -160 -4l-45 -345q-4 -41 31 -52t133 -11zM531 582q102 0 172.5 49t70.5 140t-67.5 141.5t-192.5 50.5l-156 -2l-47 -375q118 -4 220 -4zM88 999q0 58 105 58h348q166 0 260 -62.5t94 -193.5q0 -98 -59.5 -164t-153.5 -92
q199 -43 199 -217q0 -334 -478 -334q-139 0 -211.5 21.5t-72.5 74.5q0 35 16.5 164t37.5 298t56 409l-133 2q-8 13 -8 36z" />
    <glyph glyph-name="C" unicode="C" horiz-adv-x="935" 
d="M862 129q0 -61 -96 -101t-280 -40t-292 103.5t-108 307.5q0 300 147 482t410 182q264 0 264 -90q0 -41 -33 -60q-80 41 -229 41q-215 0 -321.5 -143t-106.5 -391q0 -328 303 -332q146 -4 309 88q33 -12 33 -47z" />
    <glyph glyph-name="D" unicode="D" horiz-adv-x="1161" 
d="M416 90q262 0 399 126t137 378q0 186 -113.5 277.5t-322.5 91.5l-158 -2l-102 -809q-4 -39 19.5 -50.5t140.5 -11.5zM88 997q0 60 111 60h346q281 0 408.5 -119.5t127.5 -297.5q0 -334 -181 -490t-481 -156t-300 96q0 34 12 126t37 296q25 203 61 449l-133 2q-8 11 -8 34
z" />
    <glyph glyph-name="E" unicode="E" horiz-adv-x="905" 
d="M315 104h471q24 -49 0.5 -74.5t-122 -28.5t-214.5 -3t-182.5 2t-99.5 9t-40 23t-7 38q0 137 46 452.5t62 438.5l-133 2q-8 15 -8 37t22.5 39.5t82.5 17.5l614 2l94 2q10 -16 10 -41q0 -66 -118 -66l-435 2l-45 -352h430q6 -16 7 -37q0 -65 -93 -65l-356 2l-45 -354
q-4 -29 6 -37.5t53 -8.5z" />
    <glyph glyph-name="F" unicode="F" horiz-adv-x="829" 
d="M177 -2q-64 0 -64 46q0 30 9 98.5t16 124t13.5 110.5t15.5 130t27.5 203t34.5 251l-133 2q-8 15 -8 37t22.5 39.5t82.5 17.5l624 2l74 2q10 -16 10 -45q0 -58 -117 -58l-426 3l-47 -379h402q8 -20 8 -37q0 -60 -94 -60l-328 2l-59 -479q-25 -10 -63 -10z" />
    <glyph glyph-name="G" unicode="G" horiz-adv-x="1040" 
d="M672 954q-455 0 -455 -534q0 -332 318 -332q150 0 253 45l29 207h-209q-8 14 -8 41q0 61 197 61q101 0 128.5 -12.5t22.5 -44.5l-28 -246q-8 -64 -128 -107.5t-303 -43.5q-184 0 -293.5 101t-109.5 310q0 478 225.5 571t400.5 93t226 -39.5t51 -71.5t-35 -51
q-121 53 -282 53z" />
    <glyph glyph-name="H" unicode="H" horiz-adv-x="1153" 
d="M1073 50q0 -52 -141 -52q-78 0 -97.5 12.5t-19.5 35.5v9l45 441h-561l-61 -490q-20 -8 -60 -8q-69 0 -66 46q2 38 4 57t8.5 65.5t13.5 102t26.5 219t64.5 473.5l-133 2q-8 14 -8 30q0 35 35.5 51.5t121.5 16.5q87 0 104.5 -11.5t15.5 -33.5l-56 -436l561 2q25 201 36 284
l12 84q8 70 26.5 93.5t57.5 23.5t61 -16l-119 -957h123q6 -18 6 -44z" />
    <glyph glyph-name="I" unicode="I" horiz-adv-x="692" 
d="M680 1020q0 -68 -119 -64h-100l-109 -858l191 2q10 -20 10 -51t-27.5 -42t-91.5 -11l-395 4q-8 14 -8 32q0 38 36.5 51t153.5 13q2 16 8.5 66.5t19 158t27.5 220t31.5 238t24.5 179.5l-174 3q-11 11 -11 39t26 43.5t112 15.5h290l93 2q12 -24 12 -41z" />
    <glyph glyph-name="J" unicode="J" horiz-adv-x="520" 
d="M155.5 1047.5q38.5 15.5 139.5 15.5q100 0 120.5 -12t16.5 -35l-110 -873q-27 -219 -107 -303t-233 -84q-51 0 -68.5 15.5t-17.5 43.5t14 42q178 0 210 38t50 141t28 188q67 542 97 739h-168q-10 12 -10 41q0 28 38.5 43.5z" />
    <glyph glyph-name="K" unicode="K" horiz-adv-x="987" 
d="M177 -2q-67 0 -65 46q1 19 1 33.5t2 31.5l114 852l-133 2q-8 14 -8 30q0 68 140 68q104 0 122.5 -9.5t14.5 -33.5l-60 -473l533 475q52 41 94 41q43 0 43 -37q0 -20 -6 -35l-484 -418l357 -477l80 6q14 -12 14 -34q0 -70 -154 -70q-33 0 -53 27q-10 10 -68.5 92
t-155.5 216.5t-114 166.5l-102 -84l-49 -406q-25 -10 -63 -10z" />
    <glyph glyph-name="L" unicode="L" horiz-adv-x="776" 
d="M731 64q0 -24 -11 -36t-58.5 -21t-198.5 -9q-205 0 -257 6t-68 16q-17 10 -17 73q1 63 29 277t44.5 341t34.5 250l-133 2q-8 14 -8 30q0 68 140 68q104 0 122.5 -9.5t14.5 -33.5l-109 -868q-4 -29 6 -37.5t53 -8.5h408q8 -16 8 -40z" />
    <glyph glyph-name="M" unicode="M" horiz-adv-x="1445" 
d="M156 -2q-43 0 -43 48t19.5 193t28.5 215t17 139t17.5 135.5t18.5 126.5t15 106l-133 2q-8 14 -8 30q0 35 35.5 51.5t119.5 16.5q85 0 120.5 -22.5t52.5 -67.5l280 -731l475 743q27 41 48.5 58.5t66.5 17.5t84 -39l-129 -1014q-20 -8 -60 -8q-67 0 -67 46q0 19 2 32.5
t4 28.5t7.5 61.5t12.5 102t14 110.5t10 81t10.5 77t14.5 110.5t15 117.5t13.5 94t5.5 38l-482 -770q-29 -18 -67 -18q-39 0 -52.5 9t-25.5 42l-266 733l-111 -885q-20 -10 -63 -10z" />
    <glyph glyph-name="N" unicode="N" horiz-adv-x="1185" 
d="M173 -2q-60 0 -60 46q0 30 3 53t7 59.5t13.5 112t25.5 195.5t32.5 247t34.5 250l-133 2q-8 14 -8 30q0 35 35.5 51.5t116.5 16.5t110 -19.5t45 -44.5l492 -821l108 877q10 10 47 10q65 0 56 -86l-117 -957q-28 -22 -73 -22q-46 0 -58 9t-23 26l-497 848l-109 -873
q-14 -10 -48 -10z" />
    <glyph glyph-name="O" unicode="O" horiz-adv-x="1155" 
d="M876.5 863.5q-73.5 103.5 -260.5 103.5t-294 -155.5t-107 -360.5q0 -204 84 -289.5t262 -85.5t283.5 155.5t105.5 342.5q0 186 -73.5 289.5zM1077 602q0 -118 -35.5 -234t-146.5 -249t-371 -133q-207 0 -322.5 98t-115.5 326q0 301 150 475t415 174q218 0 322 -114
t104 -343z" />
    <glyph glyph-name="P" unicode="P" 
d="M456 514q143 0 229.5 63t86.5 191q0 195 -256 195l-158 -2l-55 -435q81 -12 153 -12zM88 1005q0 52 105 52h350q178 0 267 -70.5t89 -178.5q0 -195 -128.5 -291.5t-317.5 -96.5q-78 0 -160 8l-53 -420q-27 -10 -63 -10t-49 11t-13 44l2 53q10 90 22.5 179.5t31.5 249.5
t58 426l-133 2q-8 13 -8 42z" />
    <glyph glyph-name="Q" unicode="Q" horiz-adv-x="1155" 
d="M908 -182q56 0 108 18q18 -16 18 -43q0 -47 -55 -73.5t-113 -26.5t-97.5 9t-98.5 121q-32 59 -87 165q-29 -3 -59 -2q-207 0 -322.5 98t-115.5 326q0 301 150 475t415 174q426 0 426 -438q0 -284 -115.5 -422t-256.5 -187h2q101 -176 123 -185t78 -9zM876.5 863.5
q-73.5 103.5 -260.5 103.5t-294 -155.5t-107 -360.5q0 -204 84 -289.5t262 -85.5t283.5 155.5t105.5 342.5q0 186 -73.5 289.5z" />
    <glyph glyph-name="R" unicode="R" horiz-adv-x="983" 
d="M487 518q141 0 217 63.5t76 176.5t-68 159t-94 46l-260 -2l-53 -433q118 -10 182 -10zM180 -2q-66 0 -65 46q0 19 1 28l19 176q18 166 48 377t46 336l-133 4q-8 10 -8 28q0 63 100 64h379q232 0 286 -94.5t54 -169.5q0 -141 -74.5 -220t-205.5 -118l186 -365l88 8
q14 -14 14 -37q0 -69 -153 -69q-39 0 -60 39l-198 405q-10 -2 -26 -2h-53q-38 0 -128 12l-57 -440q-20 -8 -60 -8z" />
    <glyph glyph-name="S" unicode="S" horiz-adv-x="882" 
d="M670 255q0 67 -47 115t-155 85q-194 67 -254 130.5t-60 185.5q0 123 111 212.5t272 89.5t233 -31.5t72 -77.5t-39 -65q-116 72 -250 72q-135 0 -207 -54t-72 -132t53 -124t178 -89q126 -42 173 -70.5t83 -76t36 -121.5q0 -138 -102 -224t-281 -86q-367 0 -367 133
q0 49 49 61q98 -102 276.5 -102t238 51t59.5 118z" />
    <glyph glyph-name="T" unicode="T" horiz-adv-x="833" 
d="M338 -2q-66 0 -66 47t15.5 157.5t21 165t13.5 107.5t15 108.5t15 112t16.5 121t20.5 144.5l-356 4q-8 13 -8 35t23.5 39.5t82.5 17.5l680 2l74 2q10 -16 10 -41q0 -59 -113 -59h-264l-117 -953q-25 -10 -63 -10z" />
    <glyph glyph-name="U" unicode="U" horiz-adv-x="1146" 
d="M1023 1063q42 0 42 -77t-10.5 -155.5t-14.5 -111.5l-39 -305q-29 -217 -155 -319.5t-318 -102.5t-289.5 65.5t-97.5 223.5q0 98 84 680l-133 2q-8 14 -8 30q0 68 140 68q101 0 120.5 -11t15.5 -32q-84 -630 -84 -728t60 -151t200 -53q291 0 334 262q47 255 86 703
q25 12 67 12z" />
    <glyph glyph-name="V" unicode="V" horiz-adv-x="1017" 
d="M1028 1016q0 -33 -27 -82l-493 -930q-20 -8 -55 -8t-43 33l-285 932l-92 2q-8 10 -8 28q0 72 122 72q64 0 81.5 -9.5t25.5 -35.5l238 -836l444 875q14 6 41 6q51 0 51 -47z" />
    <glyph glyph-name="W" unicode="W" horiz-adv-x="1517" 
d="M760.5 1063q40.5 0 52.5 -9.5t16 -31.5l207 -840l400 877q16 4 39 4q53 0 53 -47q0 -23 -27 -82l-438 -930q-20 -8 -62 -8t-49 33l-176 667l-299 -690q-25 -10 -65 -10t-47 33l-240 932l-92 2q-8 10 -8 28q0 72 122 72q64 0 80.5 -7t22.5 -34l203 -842l284 684l-43 162
q26 37 66.5 37z" />
    <glyph glyph-name="X" unicode="X" horiz-adv-x="993" 
d="M954 1061q47 0 47 -42t-30 -73l-398 -411l240 -445l88 8q14 -18 14 -37q0 -70 -161 -69q-31 0 -45.5 13t-38.5 63l-191 364l-381 -432q-20 -4 -46 -4t-34 11t-8 38t31 62t78 87t98 108t100.5 109.5t78 85t30.5 33.5l-223 428l-121 5q-8 10 -8 29q0 73 123 73
q59 0 75.5 -3t28.5 -13.5t39 -57.5l182 -360l393 426q20 4 39 4z" />
    <glyph glyph-name="Y" unicode="Y" horiz-adv-x="919" 
d="M49 995q0 68 137 68q35 0 49.5 -11.5t30.5 -43.5l203 -422l393 469q18 6 41 6q39 0 39 -39t-27 -70l-395 -458l-61 -486q-25 -10 -63 -10t-51 13.5t-13 41.5l51 420l-242 488l-84 2q-8 10 -8 32z" />
    <glyph glyph-name="Z" unicode="Z" horiz-adv-x="942" 
d="M887 56q0 -56 -109 -56h-90l-278 2h-344q-25 33 -25 69t12.5 57.5t40.5 51.5l604 658q29 31 57.5 61.5t59.5 58.5h-661q-24 28 -13 60t47.5 37.5t77.5 5.5l654 -2q22 -26 22 -63q0 -36 -11 -59.5t-42 -57.5l-635 -699q-30 -32 -84 -82l702 2q15 -14 15 -44z" />
    <glyph glyph-name="bracketleft" unicode="[" horiz-adv-x="591" 
d="M588 1164q0 -20 -15 -34l-186 -6l-176 -1380l188 2q31 -63 -26 -81.5t-159 -18.5t-120 21.5t-8 92.5l166 1348q8 72 26.5 90.5t42 22.5t77.5 4t94 -3t61.5 -9.5t28 -17.5t6.5 -31z" />
    <glyph glyph-name="backslash" unicode="\" horiz-adv-x="679" 
d="M120 1169q48 0 64 -55l322 -1118q-29 -33 -70 -33t-51 35l-313 1073l-23 68q23 30 71 30z" />
    <glyph glyph-name="bracketright" unicode="]" horiz-adv-x="591" 
d="M40.5 -343.5q-38.5 10.5 -38.5 39.5q0 28 12 44l189 4l174 1380h-187q-8 10 -8 30q0 38 43.5 54.5t147.5 16.5t121.5 -22.5t9.5 -92.5l-168 -1350q-8 -74 -26.5 -90t-41 -20t-106.5 -4q-83 0 -121.5 10.5z" />
    <glyph glyph-name="asciicircum" unicode="^" horiz-adv-x="778" 
d="M92 676q0 24 9.5 45.5t43.5 71.5l250 354q25 35 42 47t59 12t77 -20l185 -510q-16 -47 -72 -47q-27 0 -39 11t-20 34l-144 409l-317 -452q-31 -4 -52.5 8.5t-21.5 36.5z" />
    <glyph glyph-name="underscore" unicode="_" horiz-adv-x="575" 
d="M512 53q0 -57 -74 -57l-385 4q-14 20 -14 47q0 51 57 51h404q12 -16 12 -45z" />
    <glyph glyph-name="grave" unicode="`" horiz-adv-x="929" 
d="M299 1228q0 34 23.5 53t54.5 26l241 -209q33 -29 33 -58t-15 -47t-38 -20l-276 205q-23 16 -23 50z" />
    <glyph glyph-name="a" unicode="a" 
d="M506 733q-143 0 -223 -108.5t-80 -290.5q0 -129 38 -191.5t133 -62.5t152.5 50t77.5 81l68 485q-68 37 -166 37zM709 -6q-103 0 -103 85q0 42 8 83q-73 -170 -290 -170q-248 0 -248 301q0 251 118.5 390.5t290.5 139.5q88 0 132.5 -22.5t58.5 -73.5q8 53 22.5 73.5
t48.5 20.5t62 -20l-66 -475q-10 -78 -16 -121t-6 -71t10 -35t45 -7t84 14q18 -14 19 -45q0 -67 -170 -67z" />
    <glyph glyph-name="b" unicode="b" horiz-adv-x="880" 
d="M487 717q-129 0 -225 -195l-45 -346q-4 -41 40 -69.5t126 -28.5q144 0 223.5 119t79.5 253t-45 200.5t-154 66.5zM803 504q0 -246 -118.5 -380t-328.5 -134q-114 0 -189 51.5t-75 118.5q0 33 10 108l111 809q10 70 25.5 93.5t52.5 23.5t59 -14l-71 -541q33 78 90 126
t182 48t188.5 -88.5t63.5 -220.5z" />
    <glyph glyph-name="c" unicode="c" horiz-adv-x="739" 
d="M694 94q0 -106 -297 -106q-160 0 -238.5 87t-78.5 247q0 231 116.5 366t340.5 135q106 0 148 -20.5t42 -60.5t-31 -58q-77 29 -163 29q-158 0 -244 -90t-86 -250t53 -223.5t174 -63.5t242 55q22 -18 22 -47z" />
    <glyph glyph-name="d" unicode="d" horiz-adv-x="933" 
d="M510 731q-143 0 -223 -108.5t-80 -262.5t38 -217t138 -63q53 0 117.5 35t105.5 94l66 489q-72 33 -162 33zM709 -6q-99 0 -99 78q0 60 13 118q-20 -100 -102.5 -149t-190.5 -49q-250 0 -250 301q0 251 118.5 390.5t283.5 139.5t196 -86l45 340q10 70 24.5 93.5t53.5 23.5
t59 -14l-102 -766q-12 -102 -22.5 -178t-10.5 -103t10 -34t45 -7t84 14q17 -12 17 -45q0 -67 -172 -67z" />
    <glyph glyph-name="e" unicode="e" horiz-adv-x="827" 
d="M651 614q0 119 -151 119t-210 -90t-75 -164q70 -12 197 -12q239 0 239 147zM420 86q140 0 268 59q25 -18 25 -47q0 -41 -72 -76.5t-235 -35.5q-326 0 -326 340q0 228 114 362.5t314 134.5q254 0 254 -194q0 -246 -356 -246q-110 0 -203 14q-2 -12 -2 -23v-22
q0 -266 219 -266z" />
    <glyph glyph-name="f" unicode="f" horiz-adv-x="507" 
d="M653 1153q0 -25 -22 -47q-41 10 -117 10t-102.5 -12t-39.5 -34q-32 -56 -59 -273l211 2q11 -22 11 -49q0 -54 -113 -54h-44q-44 0 -79 2l-63 -639q-33 -334 -139.5 -374.5t-164.5 -40.5t-74 15t-16 43t15 42q94 0 133.5 9t59.5 38q42 62 65 289l59 618l-104 -2
q-12 12 -12 42t32.5 42.5t97.5 16.5q27 236 100.5 324.5t219.5 88.5q145 0 145 -57z" />
    <glyph glyph-name="g" unicode="g" horiz-adv-x="903" 
d="M125 -180q0 -125 229 -125q185 0 247.5 60.5t62.5 108.5t-29 66.5t-174 23.5t-252 23q-84 -59 -84 -157zM670 539q0 196 -198 196q-104 0 -178.5 -68.5t-74.5 -193.5q0 -178 191 -178q260 0 260 244zM932 754q0 -54 -93 -54t-155 17q107 -39 107 -186q0 -148 -108 -233
t-294 -85q-36 0 -96 10q-29 -10 -61.5 -36.5t-32.5 -58.5t25.5 -44t97.5 -18t154.5 -9.5t165.5 -7.5t114.5 -41.5t31.5 -109.5t-47 -130.5t-145.5 -107.5t-264.5 -49t-241.5 43t-75.5 137q0 156 154 201q-92 26 -92 96t50 106.5t116 47.5q-82 25 -114 79t-32 137
q0 169 118 266t294 97q72 0 190 -24l224 2q10 -15 10 -45z" />
    <glyph glyph-name="h" unicode="h" horiz-adv-x="937" 
d="M715 -6q-115 0 -115 96q0 51 12 135l10 55q9 54 30.5 180t25.5 164q4 39 -22.5 66t-95.5 27t-148.5 -49.5t-135.5 -145.5l-14 -108q-10 -85 -31.5 -235.5t-21.5 -174.5q-20 -10 -57 -10t-48.5 16.5t-11.5 61.5t21 168l114 837q10 70 25.5 93.5t52.5 23.5t60 -14l-74 -547
q35 76 120 128t197 52t159.5 -59.5t31.5 -155.5l-51 -317q-19 -116 -19 -146q0 -29 10.5 -36t44.5 -7t84 14q16 -12 17 -45q0 -67 -170 -67z" />
    <glyph glyph-name="i" unicode="i" horiz-adv-x="475" 
d="M233 -6q-114 0 -114 96q0 51 12 135l70 486l-129 -4q-14 11 -14 39q-1 61 178 61q59 0 77.5 -15.5t12.5 -60.5l-43 -317q-14 -102 -24.5 -178t-10.5 -103t10 -34t45 -7t84 14q16 -12 16 -45q0 -67 -170 -67zM338 1153q74 0 74 -68q0 -39 -25 -61.5t-72 -22.5
q-77 0 -77 52.5t26.5 76t73.5 23.5z" />
    <glyph glyph-name="j" unicode="j" horiz-adv-x="436" 
d="M-66 -356q-56 0 -74 15t-18 43t15 42q94 0 134.5 9t58.5 38q41 64 69 289l78 631l-131 -4q-14 13 -14 41q-1 60 177 59q59 0 76.5 -15.5t13.5 -60.5l-90 -717q-33 -292 -136 -331t-159 -39zM330 1153q73 0 73 -68q0 -39 -24.5 -61.5t-71.5 -22.5q-78 0 -78 52.5t27 76
t74 23.5z" />
    <glyph glyph-name="k" unicode="k" horiz-adv-x="823" 
d="M150 -6q-58 0 -58 54q0 21 2 45t5.5 68.5t11.5 78.5l114 837q10 70 25.5 93.5t52.5 23.5t59 -14l-155 -1176q-20 -10 -57 -10zM714 92q38 0 72 10q17 -12 17 -38t-34.5 -49t-88.5 -23q-78 0 -100 15t-52 65l-192 297q-31 41 -31 82q164 253 220.5 301.5t92 54.5t84.5 6
q103 0 103 -63q0 -35 -27 -56q-49 11 -98 11q-48 0 -67 -8.5t-56 -47t-135 -184.5l213 -330q16 -23 28.5 -33t50.5 -10z" />
    <glyph glyph-name="l" unicode="l" horiz-adv-x="444" 
d="M207 -6q-115 0 -115 96q0 51 12 135l115 852q10 70 24.5 93.5t53.5 23.5t61 -14l-102 -766q-14 -102 -24.5 -178t-10.5 -103t10.5 -34t44.5 -7t84 14q16 -12 17 -45q0 -67 -170 -67z" />
    <glyph glyph-name="m" unicode="m" horiz-adv-x="1437" 
d="M1214 -6q-114 0 -114 85t12 146l9 55q9 54 32 182t23 152q9 105 -119 105q-66 0 -139.5 -49t-129.5 -146l-67 -520q-16 -10 -57 -10t-51.5 16t-10.5 54t21 161l53 371q10 57 -13.5 90t-95.5 33t-146.5 -49t-129.5 -146l-15 -110q-6 -49 -28.5 -214t-22.5 -196
q-25 -10 -63 -10t-47 16t-9 52t7.5 79t13.5 84l68 486l-127 -4q-14 13 -14 41q-1 58 177 59q59 0 79 -15.5t9 -60.5l-26 -127q28 93 117.5 152t193.5 59t151.5 -46t47.5 -118q0 -23 -4 -47q29 94 112.5 152.5t195.5 58.5t160 -59.5t31 -157.5l-51 -317q-18 -105 -18 -140
t10 -42t45 -7t84 14q16 -12 16 -45q0 -67 -170 -67z" />
    <glyph glyph-name="n" unicode="n" horiz-adv-x="950" 
d="M162 -6q-38 0 -47 16t-9 52t8.5 79t12.5 84l63 486l-122 -4q-14 13 -14 41q-1 58 177 59q59 0 79 -15.5t9 -60.5l-26 -127q27 91 120.5 151t205.5 60t160 -59.5t32 -157.5l-51 -317q-8 -61 -14 -90t-5 -57q0 -28 10.5 -35t43.5 -7t86 14q16 -12 16 -45q0 -67 -170 -67
q-57 0 -87 22.5t-30 76.5t15 132l9 55q9 54 31.5 179t22.5 155q9 105 -123 105q-66 0 -143.5 -51t-128.5 -144l-17 -110q-6 -49 -28.5 -214t-22.5 -196q-25 -10 -63 -10z" />
    <glyph glyph-name="o" unicode="o" horiz-adv-x="911" 
d="M663.5 659.5q-53.5 69.5 -179.5 69.5t-205.5 -110t-79.5 -256t53 -212.5t180 -66.5t206 113t79 253t-53.5 209.5zM834 468q0 -205 -116 -341.5t-321 -136.5q-317 0 -317 346q0 217 121 351t313 134q251 0 285.5 -130.5t34.5 -222.5z" />
    <glyph glyph-name="p" unicode="p" horiz-adv-x="907" 
d="M514 719q-128 0 -225 -195l-51 -395q39 -23 77.5 -33t138 -10t179.5 116.5t80 246.5q0 131 -44 200.5t-155 69.5zM382 -6q-114 0 -155 59l-55 -405q-16 -10 -56 -10t-49.5 16t-9.5 51t19 164l114 842l-122 -4q-14 13 -14 41q-1 58 177 59q59 0 79 -15.5t9 -60.5l-26 -127
q35 106 98 158.5t187 52.5t187.5 -89.5t63.5 -221.5t-31.5 -221.5t-89 -154.5t-135 -99.5t-191.5 -34.5z" />
    <glyph glyph-name="q" unicode="q" horiz-adv-x="876" 
d="M510 733q-143 0 -223 -108.5t-80 -262.5t38 -218t132 -64t152.5 51t78.5 82l68 483q-68 37 -166 37zM80 280q0 265 118.5 404t290.5 139q88 0 132.5 -22.5t58.5 -73.5q8 53 22.5 73.5t48.5 20.5t62 -20l-154 -1153q-16 -10 -58 -10t-51 16t-9 46t20 167l41 264
q-80 -139 -272 -139q-117 0 -183.5 72t-66.5 216z" />
    <glyph glyph-name="r" unicode="r" horiz-adv-x="659" 
d="M167 -6q-38 0 -49.5 16t-11.5 52t7.5 79t13.5 84l68 486l-127 -4q-14 13 -14 41q-1 58 177 59q59 0 79 -15.5t12 -60.5l-43 -223q84 196 141.5 251.5t134.5 55.5t98 -18t21 -47t-27 -54q-45 9 -121 9q-43 0 -109.5 -71t-137.5 -208l-11 -92q-6 -51 -24.5 -172.5
t-18.5 -157.5q-20 -10 -58 -10z" />
    <glyph glyph-name="s" unicode="s" horiz-adv-x="724" 
d="M39 109q0 50 65 69q43 -49 115.5 -70.5t142.5 -21.5t114 34t44 84t-34.5 80t-113.5 58q-142 49 -191.5 101t-49.5 148t90 164t212 68t181.5 -25.5t59.5 -60.5t-11.5 -48t-33.5 -21q-68 55 -179 55q-110 0 -156 -39t-46 -78q0 -69 35.5 -98t167.5 -78q114 -48 149 -89.5
t35 -97.5q0 -109 -75.5 -179t-217.5 -70q-303 0 -303 115z" />
    <glyph glyph-name="t" unicode="t" horiz-adv-x="624" 
d="M610 751q0 -55 -112 -55l-205 2l-53 -432q-19 -133 12 -158.5t101 -25.5t194 72q33 -12 33 -48q0 -61 -96 -90.5t-194 -29.5q-99 0 -143.5 38t-44.5 122t68 552l-104 -2q-12 12 -12 42t32.5 42.5t97.5 16.5l17 155q10 80 69 80q39 0 68 -18l-33 -217l295 2q10 -20 10 -48
z" />
    <glyph glyph-name="u" unicode="u" horiz-adv-x="946" 
d="M713 -6q-113 0 -113 78q0 64 10 104q-39 -94 -125 -140t-183 -46t-150.5 47t-32.5 174l76 500l-127 -4q-14 13 -14 41q-1 58 177 59q59 0 78 -15.5t10 -60.5l-77 -541q-10 -61 20.5 -82.5t94.5 -21.5t135 43t124 129l70 428q12 78 27.5 100.5t53.5 22.5t62 -21l-81 -507
q-19 -117 -19 -146t10 -36t45 -7t84 14q16 -12 17 -45q0 -67 -172 -67z" />
    <glyph glyph-name="v" unicode="v" horiz-adv-x="817" 
d="M651 652q0 70 -10 157q18 12 58 12q75 0 75 -143q0 -70 -9 -127t-58 -152.5t-273 -353.5q-27 -29 -47 -42t-67 -13t-78 26l-115 695l-92 -2q-15 13 -15 39q-1 60 130 59q57 0 73.5 -15.5t22.5 -60.5l106 -643q188 236 233.5 318.5t55.5 129t10 116.5z" />
    <glyph glyph-name="w" unicode="w" horiz-adv-x="1294" 
d="M1128 652q0 70 -10 157q18 12 58 12q75 0 75 -143q0 -70 -9 -127t-60 -153.5t-273 -352.5q-27 -29 -49 -42t-66 -13t-75 26l-60 469q0 -57 -39.5 -142.5t-183.5 -297.5q-38 -55 -97 -55t-89 26l-115 695l-92 -2q-14 13 -14 39q0 60 129 59q57 0 73.5 -15.5t22.5 -60.5
l106 -643q203 340 233 401.5t35 93t5 68.5l-15 152q27 16 62 16t47 -27.5t18 -72.5l84 -631q188 236 233.5 318.5t55.5 129t10 116.5z" />
    <glyph glyph-name="x" unicode="x" horiz-adv-x="831" 
d="M768 61q0 -67 -166 -67q-25 0 -42 7t-38 39t-112 253l-211 -254q-40 -47 -76 -47q-70 0 -70 57l309 344l-141 318l-110 -4q-15 13 -15 41t33 43.5t99 15.5t80 -10.5t34 -55.5l109 -256l221 269q39 49 75 49q62 0 62 -58l-317 -360l94 -207q23 -56 38 -71t48 -15t78 14
q18 -12 18 -45z" />
    <glyph glyph-name="y" unicode="y" horiz-adv-x="823" 
d="M659 640q0 64 -12 169q18 12 58 12q77 0 77 -143q0 -78 -11 -136.5t-47 -124t-105.5 -151.5t-152.5 -182t-124 -162.5t-81 -141.5q-77 -145 -259 -145q-72 0 -92.5 18.5t-20.5 46.5t19 44q14 -2 28 -2h25q150 0 189 55t61 99.5t41 74.5l-119 740l-92 -2q-14 13 -14 39
q0 60 129 59q59 0 74.5 -15.5t23.5 -60.5l102 -635q207 260 244 323.5t48 110t11 110.5z" />
    <glyph glyph-name="z" unicode="z" horiz-adv-x="729" 
d="M698 736q0 -38 -23.5 -73.5t-84.5 -101.5l-432 -465h504q14 -14 14 -41q0 -59 -113 -59q-300 0 -514 8q-22 35 -22 68t14 54t59 69l471 510h-442q-10 15 -10 43t23.5 42.5t95.5 14.5h434q26 -31 26 -69z" />
    <glyph glyph-name="braceleft" unicode="{" horiz-adv-x="706" 
d="M656 1223q89 0 89 -47q0 -24 -8 -37q-175 0 -228.5 -66.5t-53.5 -274.5q0 -187 -48 -273.5t-178 -102.5q78 0 119 -51.5t41 -115.5q0 -93 -23.5 -217t-23.5 -172q0 -49 7 -69t37 -37.5t144 -21.5v-19q0 -58 -46 -62.5t-66 -4.5q-98 0 -152.5 39t-54.5 127t24.5 213
t24.5 195q0 143 -213 143q-12 20 -12 51q0 51 41 53q189 21 222.5 97.5t33.5 143.5v152q0 254 117.5 305.5t206.5 51.5z" />
    <glyph glyph-name="bar" unicode="|" horiz-adv-x="507" 
d="M254 -399q-33 0 -64 10l-6 1567q0 27 17.5 46t56 19t61.5 -12l-2 -55l-4 -1528q0 -47 -59 -47z" />
    <glyph glyph-name="braceright" unicode="}" horiz-adv-x="706" 
d="M668 454q0 -28 -9.5 -39.5t-31.5 -15.5q-191 -22 -223.5 -97t-32.5 -92v-204q0 -253 -117.5 -303.5t-187.5 -50.5t-89.5 11t-19.5 33t8 40q88 0 144.5 14t98.5 69t42 246t46 281t179 105q-78 0 -119 52.5t-41 116.5q0 72 22.5 213.5t22.5 182.5t-7 61.5t-33 36t-146 23.5
q-2 6 -2 16q0 49 36 59.5t77 10.5q98 0 153.5 -39t55.5 -146q0 -52 -25 -185.5t-25 -205.5t51.5 -106.5t161.5 -34.5q11 -24 11 -52z" />
    <glyph glyph-name="asciitilde" unicode="~" horiz-adv-x="882" 
d="M782 530q0 -51 -43 -93t-129 -40l-352 4q-29 0 -50.5 -16t-49.5 -74q-31 -2 -48.5 15.5t-17.5 40.5q0 59 50.5 97t125.5 38l353 -4q29 -2 50 17.5t50 72.5q31 2 46 -16.5t15 -41.5z" />
    <glyph glyph-name="exclamdown" unicode="&#xa1;" horiz-adv-x="481" 
d="M266 293v-15q0 -16 -4 -32l-76 -617q-6 -45 -21 -63.5t-54 -18.5t-70 19l106 766q19 8 69 8t50 -47zM154 614q0 94 97 94t97 -58t-29.5 -84.5t-82.5 -26.5q-82 0 -82 75z" />
    <glyph glyph-name="cent" unicode="&#xa2;" horiz-adv-x="761" 
d="M690 87q0 -36 -50 -64.5t-183 -32.5l-15 -162q-4 -47 -48 -47t-66 18l22 193q-135 16 -204.5 101t-69.5 233q0 209 105.5 343t297.5 152l15 140q8 65 56 65q41 0 71 -16l-25 -189q149 -8 149 -84q0 -38 -30 -57q-85 33 -178 33q-94 0 -150.5 -21.5t-122 -92t-65.5 -237.5
q0 -276 227 -276q121 0 242 55q22 -18 22 -54z" />
    <glyph glyph-name="sterling" unicode="&#xa3;" horiz-adv-x="911" 
d="M807 58q0 -24 -17.5 -43t-39.5 -19h-18l-515 4h-156q-25 44 -13 70t58 40q222 69 222 228v72l-121 2q-8 16 -8 42t27.5 38t90.5 14q-16 152 -16 205q0 305 356 305q119 0 119 -58q0 -37 -16 -53q-32 8 -129 8q-209 0 -209 -184q0 -67 14 -221l305 2q41 -102 -85 -102h-99
q-51 0 -113 2l2 -72q0 -92 -39.5 -149.5t-130.5 -90.5h519q12 -16 12 -40z" />
    <glyph glyph-name="currency" unicode="&#xa4;" horiz-adv-x="878" 
d="M281 381v-43q0 -8 2 -19h327q13 -15 13 -38q0 -52 -68 -52l-260 2q41 -145 203 -145q131 0 252 55q22 -18 22 -47q0 -106 -297 -106q-267 0 -309 245h-115q-12 14 -12 41q0 45 49 45h70v3q0 72 12 133l-90 2q-12 12 -12 41q0 43 49 43h76q47 135 153.5 208.5t267.5 73.5
q106 0 148.5 -20.5t42.5 -60.5t-31 -58q-77 29 -176 29q-208 0 -283 -172h240l100 2q12 -16 13 -41q0 -54 -66 -49h-313q-8 -39 -8 -72z" />
    <glyph glyph-name="yen" unicode="&#xa5;" horiz-adv-x="868" 
d="M829 645q0 -59 -75 -59l-222 2l-22 -27l-18 -137h221l63 2q15 -14 15 -62.5t-78 -41.5l-234 2l-41 -316q-25 -10 -65 -10q-64 0 -64 55q0 10 2 23.5t4 29.5l29 218l-297 2q-16 16 -16 49q0 49 59 49h266l17 129l-19 37h-268q-14 14 -14 49q0 51 57 51h176l-135 271l-84 2
q-8 10 -8 32q0 68 137 68q35 0 49.5 -11.5t30.5 -43.5l168 -346l332 393q18 6 43 6q37 0 36 -43q0 -25 -28 -60l-228 -268h134l63 2q14 -18 14 -47z" />
    <glyph glyph-name="brokenbar" unicode="&#xa6;" horiz-adv-x="507" 
d="M254 -399q-31 0 -61 10l-7 670q0 65 56.5 65t79.5 -12l-3 -53l-4 -633q0 -47 -61 -47zM254 496q-31 0 -61 10l-7 672q0 27 17.5 46t56.5 19t62 -12l-3 -55l-4 -633q0 -47 -61 -47z" />
    <glyph glyph-name="section" unicode="&#xa7;" horiz-adv-x="786" 
d="M475 706q0 -59 30 -130.5t86 -192.5t56 -212q0 -170 -119.5 -273t-287.5 -103q-111 0 -169.5 23.5t-58.5 63.5t35 59q78 -31 210 -31t203.5 63.5t71.5 172.5t-80 288q-80 178 -81 274q0 96 78 95q14 0 30 -6q-4 -32 -4 -91zM283 128q0 58 -29 131t-86 191t-57 212
q0 174 120 276t287 102q111 0 169 -23.5t58 -64.5t-34 -57q-85 29 -213 29q-129 0 -201 -63.5t-72 -170.5t82 -284q80 -183 80 -279t-76 -96q-14 0 -32 6q4 33 4 91z" />
    <glyph glyph-name="dieresis" unicode="&#xa8;" horiz-adv-x="974" 
d="M315 1149q74 0 74 -68q0 -39 -25.5 -60.5t-68.5 -21.5q-78 0 -78 68q0 35 25.5 58.5t72.5 23.5zM678 1149q74 0 74 -68q0 -39 -26 -60.5t-71 -21.5q-75 0 -75 68q0 35 25.5 58.5t72.5 23.5z" />
    <glyph glyph-name="copyright" unicode="&#xa9;" horiz-adv-x="1548" 
d="M785 125q130 0 225 57q30 -12 30 -47q0 -104 -290 -104q-147 0 -237.5 87t-90.5 265t112.5 290.5t309.5 112.5q86 0 133 -21.5t47 -57.5t-37 -56q-86 33 -174 33q-141 0 -204.5 -79t-63.5 -211t55 -200.5t185 -68.5zM1323 422q0 250 -123 377t-405 127t-425 -149.5
t-143 -396.5t142.5 -361.5t399.5 -114.5t405.5 134t148.5 384zM815 1008q617 0 617 -559q0 -309 -177 -467t-503 -158q-450 0 -542.5 195.5t-92.5 340.5q0 309 172.5 478.5t525.5 169.5z" />
    <glyph glyph-name="ordfeminine" unicode="&#xaa;" horiz-adv-x="684" 
d="M385 1040q-90 0 -142.5 -69t-52.5 -175t23 -144t69 -38t87 21.5t65 58.5l47 328q-41 18 -96 18zM573 627q22 0 54 10q22 -12 22 -39t-29.5 -47.5t-99.5 -20.5q-86 0 -86 95v12q-18 -53 -70 -80t-122 -27t-118 53t-48 155q0 185 85.5 285.5t207.5 100.5q92 0 120 -43
q15 39 51 39t62 -18l-45 -332q-6 -53 -10 -82t-4 -43t4 -16t26 -2z" />
    <glyph glyph-name="guillemotleft" unicode="&#xab;" horiz-adv-x="985" 
d="M766 96q0 -46 -68 -51l-161 270q-19 29 -19 57t10.5 43t30.5 36l277 290q49 -6 49 -51q0 -27 -43 -84l-197 -229l109 -227q12 -29 12 -54zM393 68q0 -49 -65 -54l-185 303q-20 31 -20 60t11 46t34 40l315 325q47 -6 47 -51q0 -36 -47 -90l-229 -262l125 -262
q14 -27 14 -55z" />
    <glyph glyph-name="logicalnot" unicode="&#xac;" horiz-adv-x="880" 
d="M160 463h540l64 2q19 -23 10 -82l-51 -328q-10 -63 -61 -63q-42 0 -66 24l57 344l-536 5q-14 16 -15 49q0 49 58 49z" />
    <glyph glyph-name="minus" unicode="&#xad;" horiz-adv-x="880" 
d="M160 463h538l64 2q14 -14 14 -47q0 -58 -78 -58l-583 5q-14 16 -15 49q0 49 60 49z" />
    <glyph glyph-name="registered" unicode="&#xae;" horiz-adv-x="1148" 
d="M488 795h44q41 0 67 22.5t26 59.5q0 82 -95 81l-57 -2v-159q10 -2 15 -2zM741 594q0 -34 -69 -33q-30 0 -47 27l-88 151h-26q-26 0 -38 2l-2 -168q-20 -10 -47 -10t-31 15.5t-4 35.5v152l2 192l-47 3q-8 11 -8 29t16.5 22t38.5 4h144q167 0 167 -131q0 -92 -84 -129
q47 -75 82 -125h33q8 -15 8 -37zM907 803q0 166 -83 251t-270 85t-283.5 -100.5t-96.5 -272.5q0 -232 138.5 -271.5t213.5 -39.5q180 0 280.5 91t100.5 257zM567 1212q428 0 428 -391q0 -215 -123.5 -323.5t-347.5 -108.5q-311 0 -376.5 136.5t-65.5 235.5
q0 210 120.5 330.5t364.5 120.5z" />
    <glyph glyph-name="macron" unicode="&#xaf;" horiz-adv-x="827" 
d="M672 1110q0 -66 -80 -61l-422 4q-16 18 -16 47q0 59 63 59h373l67 2q15 -22 15 -51z" />
    <glyph glyph-name="degree" unicode="&#xb0;" horiz-adv-x="819" 
d="M632.5 1079q-0.5 92 -64.5 158t-158.5 66t-157.5 -66q-66 -63 -66 -158t66 -159t158 -64t157.5 65.5t65 157.5zM717 1079q0 -127 -90 -217t-217 -90t-217 89t-90.5 218t89.5 218t217.5 89t217.5 -90t90 -217z" />
    <glyph glyph-name="plusminus" unicode="&#xb1;" horiz-adv-x="1124" 
d="M37 98h1050v-98h-1050v98zM514 1270h98v-479h475v-97h-475v-475h-98v475h-477v97h477v479z" />
    <glyph glyph-name="twosuperior" unicode="&#xb2;" horiz-adv-x="679" 
d="M59 588q0 28 40 52t123.5 70t155.5 103q73 58 73 127q0 43 -27 68.5t-82 25.5q-96 0 -170 -63q-47 6 -47 45q0 26 27 51q64 59 182 59t171.5 -47t53.5 -107t-14.5 -97t-66 -88t-234.5 -156h325q8 -20 9 -37q0 -57 -68 -57h-33l-178 2h-217q-23 20 -23 49z" />
    <glyph glyph-name="threesuperior" unicode="&#xb3;" horiz-adv-x="655" 
d="M510 933q0 -101 -141 -147q72 -16 104.5 -60t32.5 -93q0 -113 -79 -176.5t-220 -63.5q-86 0 -143.5 24.5t-57.5 58.5t27 52q88 -45 181 -45t136 37.5t43 91.5t-39 85.5t-143 29.5q-18 14 -18 48t34 38q92 10 131 40t39 95q0 90 -99 90t-165 -59q-41 6 -41 41q0 58 66 83
t160 25t143 -47t49 -148z" />
    <glyph glyph-name="acute" unicode="&#xb4;" horiz-adv-x="929" 
d="M258 1020q0 33 9 47t36 31l326 186q55 -19 55 -68t-37 -67l-352 -172q-37 10 -37 43z" />
    <glyph glyph-name="mu" unicode="&#xb5;" horiz-adv-x="1179" 
d="M420 -33q-76 0 -160 70q-4 -145 25 -252q18 -80 18 -123t-27 -74q-26 -30 -62 -30t-62 32t-27 80q1 47 29 144t28 305v796h168v-575q0 -104 19 -147q14 -43 59 -72q49 -27 96 -27t115 33q70 29 145 98v690h166v-602q0 -132 10 -165q19 -66 66 -66q25 0 47 24q20 25 31 99
h41q-25 -236 -191 -236q-74 0 -116 45q-43 41 -54 156q-102 -113 -218 -169q-70 -34 -146 -34z" />
    <glyph glyph-name="paragraph" unicode="&#xb6;" horiz-adv-x="1024" 
d="M975 759q0 -65 -119 -65h-39l-100 -815q-4 -39 -17.5 -60.5t-54.5 -21.5q-8 0 -24 4l110 897l-94 2l-100 -819q-12 -98 -69.5 -151.5t-158.5 -53.5q-76 0 -76 56q0 25 17 41q90 0 126 15t40 58l47 396q-70 -66 -199 -66q-203 0 -203 223q0 203 116 307.5t339 104.5h26
l312 -2h109q12 -18 12 -50z" />
    <glyph glyph-name="periodcentered" unicode="&#xb7;" horiz-adv-x="518" 
d="M356 436q0 -33 -19.5 -60.5t-78.5 -27.5q-96 0 -96 84q0 37 28.5 62.5t79.5 25.5t68.5 -25.5t17.5 -58.5z" />
    <glyph glyph-name="periodcentered" unicode="&#x2219;" horiz-adv-x="518" 
d="M356 436q0 -33 -19.5 -60.5t-78.5 -27.5q-96 0 -96 84q0 37 28.5 62.5t79.5 25.5t68.5 -25.5t17.5 -58.5z" />
    <glyph glyph-name="cedilla" unicode="&#xb8;" horiz-adv-x="641" 
d="M98 -289q0 41 11 58q40 -5 77 -5q75 0 96 33t21 92v51q0 52 -2 74h115q6 -44 6 -132t-54 -151t-162 -62t-108 42z" />
    <glyph glyph-name="onesuperior" unicode="&#xb9;" horiz-adv-x="661" 
d="M530 595q0 -30 -30.5 -44t-120.5 -12h-252q-10 16 -10 33q0 35 27.5 49t129.5 14l50 387l-162 -86q-18 0 -30.5 17.5t-12.5 32.5q0 33 63 71l60 30q80 46 131 46t62 -12.5t7 -33.5l-55 -452l137 2q6 -12 6 -42z" />
    <glyph glyph-name="ordmasculine" unicode="&#xba;" horiz-adv-x="696" 
d="M518 852q0 182 -122 182q-108 0 -160 -71t-52 -170q0 -181 148 -181q85 0 135.5 75t50.5 165zM618 877q0 -158 -79.5 -251.5t-229.5 -93.5q-111 0 -170 59.5t-59 176.5q0 162 86 256t220 94t183 -68.5t49 -172.5z" />
    <glyph glyph-name="guillemotright" unicode="&#xbb;" horiz-adv-x="985" 
d="M219 692q0 47 66 51l164 -270q18 -29 18 -57t-10.5 -43t-30.5 -35l-279 -291q-47 6 -47 51q0 29 43 84l195 230l-107 227q-12 27 -12 53zM592 732q0 49 65 54l185 -303q20 -35 20 -68t-45 -77l-317 -326q-45 6 -45 47t47 95l227 262l-125 262q-12 26 -12 54z" />
    <glyph glyph-name="onequarter" unicode="&#xbc;" horiz-adv-x="1361" 
d="M815 88h229l37 328zM690 46q0 30 21 56l391 469q20 4 54 4t44 -19t6 -60l-41 -406l99 2q8 -24 8 -46q0 -44 -84 -44h-33l-10 -100q-7 -43 -52 -43t-71 20l12 123l-327 -2q-17 16 -17 46zM530 595q0 -30 -30.5 -44t-120.5 -12h-252q-10 16 -10 33q0 35 27.5 49t129.5 14
l50 387l-162 -86q-18 0 -30.5 17.5t-12.5 32.5q0 33 63 71l60 30q80 46 131 46t62 -12.5t7 -33.5l-55 -452l137 2q6 -12 6 -42zM1040 1092q45 61 94 61t64 -45l-889 -1159q-29 -39 -73 -39t-64 41z" />
    <glyph glyph-name="onehalf" unicode="&#xbd;" horiz-adv-x="1417" 
d="M1188 401q0 43 -26.5 69t-82.5 26q-95 0 -170 -64q-47 6 -47 45q0 24 27 51q63 60 181 60t172 -47t54 -107t-14 -97.5t-66.5 -88.5t-234.5 -156h326q8 -20 8 -37q0 -57 -68 -57h-33l-178 2h-217q-23 19 -23 48q0 30 40 54t121 68t156 103t75 128zM530 595
q0 -30 -30.5 -44t-120.5 -12h-252q-10 16 -10 33q0 35 27.5 49t129.5 14l50 387l-162 -86q-18 0 -30.5 17.5t-12.5 32.5q0 33 63 71l60 30q80 46 131 46t62 -12.5t7 -33.5l-55 -452l137 2q6 -12 6 -42zM1040 1092q45 61 94 61t64 -45l-889 -1159q-29 -39 -73 -39t-64 41z
" />
    <glyph glyph-name="threequarters" unicode="&#xbe;" horiz-adv-x="1396" 
d="M1075 1092q45 61 94 61t64 -45l-889 -1159q-29 -39 -73 -39t-64 41zM510 933q0 -101 -141 -147q72 -16 104.5 -60t32.5 -93q0 -113 -79 -176.5t-220 -63.5q-86 0 -143.5 24.5t-57.5 58.5t27 52q88 -45 181 -45t136 37.5t43 91.5t-39 85.5t-143 29.5q-18 14 -18 48t34 38
q92 10 131 40t39 95q0 90 -99 90t-165 -59q-41 6 -41 41q0 58 66 83t160 25t143 -47t49 -148zM850 88h229l37 328zM725 46q0 30 20 56l392 469q20 4 54 4t44 -19t6 -60l-41 -406l98 2q21 -61 -3.5 -75.5t-71.5 -14.5h-33l-10 -100q-7 -43 -52 -43t-71 20l12 123l-328 -2
q-16 16 -16 46z" />
    <glyph glyph-name="questiondown" unicode="&#xbf;" horiz-adv-x="821" 
d="M532 535q-83 0 -83 77q0 43 28.5 69t79.5 26q88 0 88 -78q0 -41 -29.5 -67.5t-83.5 -26.5zM565 391q74 0 74 -109t-88 -167q-69 -45 -188 -79t-150 -46.5t-53.5 -30t-22.5 -61.5q0 -87 129.5 -167.5t329.5 -80.5q18 -18 18 -43q0 -61 -107 -61t-196.5 30.5t-154 79.5
t-100.5 108.5t-36 110.5q0 97 52.5 142.5t178.5 84.5q126 40 170 58t71.5 45t27.5 105v42q0 14 -2 27q14 12 47 12z" />
    <glyph glyph-name="Agrave" unicode="&#xc0;" horiz-adv-x="1026" 
d="M690 1250q0 -28 -16 -46t-39 -20l-277 205q-22 16 -22 50q1 61 80 79l241 -209q33 -31 33 -59zM705 383l-140 491l-250 -491h390zM1026 66q0 -70 -154 -70q-31 0 -45 7t-22 34l-76 264h-453l-153 -299q-30 -6 -49 -6q-49 0 -49 43q0 23 28 72l473 899q16 31 29.5 41
t40.5 10t43 -6l295 -961l78 6q14 -11 14 -34z" />
    <glyph glyph-name="Aacute" unicode="&#xc1;" horiz-adv-x="1026" 
d="M514 1231q0 33 10.5 47t34.5 31l326 186q55 -19 55 -68t-37 -67l-352 -172q-37 10 -37 43zM705 383l-140 491l-250 -491h390zM1026 66q0 -70 -154 -70q-31 0 -45 7t-22 34l-76 264h-453l-153 -299q-30 -6 -49 -6q-49 0 -49 43q0 23 28 72l473 899q16 31 29.5 41t40.5 10
t43 -6l295 -961l78 6q14 -11 14 -34z" />
    <glyph glyph-name="Acircumflex" unicode="&#xc2;" horiz-adv-x="1026" 
d="M766 1188q-35 0 -47 16t-27.5 44t-31 57.5t-29 57.5t-21.5 44l-172 -213q-66 0 -65 37q0 16 9 33.5t48 64.5l90 111q48 59 103 59t82 -14l133 -252q-12 -45 -72 -45zM705 383l-140 491l-250 -491h390zM1026 66q0 -70 -154 -70q-31 0 -45 7t-22 34l-76 264h-453l-153 -299
q-30 -6 -49 -6q-49 0 -49 43q0 23 28 72l473 899q16 31 29.5 41t40.5 10t43 -6l295 -961l78 6q14 -11 14 -34z" />
    <glyph glyph-name="Atilde" unicode="&#xc3;" horiz-adv-x="1026" 
d="M911 1394q0 -46 -47 -81t-137 -39l-205 -8q-33 -2 -55.5 -19.5t-48.5 -72.5q-68 -4 -68 57t49.5 95t135.5 38l202 8q37 0 60.5 19.5t48.5 72.5q65 9 65 -70zM705 383l-140 491l-250 -491h390zM1026 66q0 -70 -154 -70q-31 0 -45 7t-22 34l-76 264h-453l-153 -299
q-30 -6 -49 -6q-49 0 -49 43q0 23 28 72l473 899q16 31 29.5 41t40.5 10t43 -6l295 -961l78 6q14 -11 14 -34z" />
    <glyph glyph-name="Adieresis" unicode="&#xc4;" horiz-adv-x="1026" 
d="M416 1235q-76 0 -76 68q0 35 25.5 58t68.5 23q78 0 78 -67q0 -39 -25.5 -60.5t-70.5 -21.5zM821 1384q74 0 74 -67q0 -82 -94 -82q-76 0 -76 68q0 35 24.5 58t71.5 23zM705 383l-140 491l-250 -491h390zM1026 66q0 -70 -154 -70q-31 0 -45 7t-22 34l-76 264h-453
l-153 -299q-30 -6 -49 -6q-49 0 -49 43q0 23 28 72l473 899q16 31 29.5 41t40.5 10t43 -6l295 -961l78 6q14 -11 14 -34z" />
    <glyph glyph-name="Aring" unicode="&#xc5;" horiz-adv-x="1026" 
d="M563 1307q0 -54 58 -54q73 0 73 70q0 55 -55 55q-35 0 -55.5 -18.5t-20.5 -52.5zM655 1456q131 0 131 -130q0 -72 -52 -109t-118 -37q-146 0 -147 116q0 84 54.5 122t131.5 38zM705 383l-140 491l-250 -491h390zM1026 66q0 -70 -154 -70q-31 0 -45 7t-22 34l-76 264h-453
l-153 -299q-30 -6 -49 -6q-49 0 -49 43q0 23 28 72l473 899q16 31 29.5 41t40.5 10t43 -6l295 -961l78 6q14 -11 14 -34z" />
    <glyph glyph-name="AE" unicode="&#xc6;" horiz-adv-x="1466" 
d="M793 965l-375 -525h303zM70 -6q-60 0 -60 55q0 18 25 60l667 901q18 27 42 37t67 10l557 2l94 2q11 -16 11 -41q0 -66 -119 -66l-434 2l-46 -352h431q6 -16 6 -39q0 -63 -92 -63l-357 2l-45 -354q-4 -29 7.5 -37.5t52.5 -8.5h471q10 -16 10 -38t-26.5 -51t-328 -20
t-311.5 30.5t-10 56.5t29 276h-351l-266 -362q-8 -2 -24 -2z" />
    <glyph glyph-name="Ccedilla" unicode="&#xc7;" horiz-adv-x="935" 
d="M608 -102q0 -104 -54 -167t-162 -62t-107.5 42t10.5 58q40 -5 77 -5q79 0 98 33.5t19 126.5v64h-6q-180 0 -288.5 103.5t-108.5 307.5q0 300 147 482t410 182q264 0 264 -90q0 -41 -33 -60q-80 41 -229 41q-215 0 -321.5 -143t-106.5 -391q0 -328 303 -332q146 -4 309 88
q33 -12 33 -55t-64.5 -79t-193.5 -48q4 -50 4 -96z" />
    <glyph glyph-name="Egrave" unicode="&#xc8;" horiz-adv-x="905" 
d="M678 1250q0 -28 -16 -46t-39 -20l-277 205q-22 16 -22 50q1 61 79 79l242 -209q33 -31 33 -59zM315 104h471q24 -49 0.5 -74.5t-122 -28.5t-214.5 -3t-182.5 2t-99.5 9t-40 23t-7 38q0 137 46 452.5t62 438.5l-133 2q-8 15 -8 37t22.5 39.5t82.5 17.5l614 2l94 2
q10 -16 10 -41q0 -66 -118 -66l-435 2l-45 -352h430q6 -16 7 -37q0 -65 -93 -65l-356 2l-45 -354q-4 -29 6 -37.5t53 -8.5z" />
    <glyph glyph-name="Eacute" unicode="&#xc9;" horiz-adv-x="905" 
d="M481 1231q0 33 10.5 47t34.5 31l326 186q55 -19 55 -69t-35 -66l-354 -172q-37 10 -37 43zM315 104h471q24 -49 0.5 -74.5t-122 -28.5t-214.5 -3t-182.5 2t-99.5 9t-40 23t-7 38q0 137 46 452.5t62 438.5l-133 2q-8 15 -8 37t22.5 39.5t82.5 17.5l614 2l94 2
q10 -16 10 -41q0 -66 -118 -66l-435 2l-45 -352h430q6 -16 7 -37q0 -65 -93 -65l-356 2l-45 -354q-4 -29 6 -37.5t53 -8.5z" />
    <glyph glyph-name="Ecircumflex" unicode="&#xca;" horiz-adv-x="905" 
d="M776 1188q-48 0 -59 16q-12 16 -27.5 44t-31 57.5t-29 57.5t-21.5 44l-172 -213q-66 0 -65 37q0 16 10 33.5t47 64.5l90 111q48 59 104 59q55 0 80 -14l134 -252q-12 -45 -60 -45zM315 104h471q24 -49 0.5 -74.5t-122 -28.5t-214.5 -3t-182.5 2t-99.5 9t-40 23t-7 38
q0 137 46 452.5t62 438.5l-133 2q-8 15 -8 37t22.5 39.5t82.5 17.5l614 2l94 2q10 -16 10 -41q0 -66 -118 -66l-435 2l-45 -352h430q6 -16 7 -37q0 -65 -93 -65l-356 2l-45 -354q-4 -29 6 -37.5t53 -8.5z" />
    <glyph glyph-name="Edieresis" unicode="&#xcb;" horiz-adv-x="905" 
d="M422 1384q74 0 74 -67q0 -82 -95 -82q-75 0 -75 68q0 35 24.5 58t71.5 23zM807 1384q74 0 74 -67q0 -82 -86 -82t-86 68q0 35 25.5 58t72.5 23zM315 104h471q24 -49 0.5 -74.5t-122 -28.5t-214.5 -3t-182.5 2t-99.5 9t-40 23t-7 38q0 137 46 452.5t62 438.5l-133 2
q-8 15 -8 37t22.5 39.5t82.5 17.5l614 2l94 2q10 -16 10 -41q0 -66 -118 -66l-435 2l-45 -352h430q6 -16 7 -37q0 -65 -93 -65l-356 2l-45 -354q-4 -29 6 -37.5t53 -8.5z" />
    <glyph glyph-name="Igrave" unicode="&#xcc;" horiz-adv-x="692" 
d="M143 1439q0 34 23.5 53t54.5 26l242 -209q33 -29 33 -58t-15.5 -47t-38.5 -20l-276 205q-23 16 -23 50zM680 1020q0 -68 -119 -64h-100l-109 -858l191 2q10 -20 10 -51t-27.5 -42t-91.5 -11l-395 4q-8 14 -8 32q0 38 36.5 51t153.5 13q2 16 8.5 66.5t19 158t27.5 220
t31.5 238t24.5 179.5l-174 3q-11 11 -11 39t26 43.5t112 15.5h290l93 2q12 -24 12 -41z" />
    <glyph glyph-name="Iacute" unicode="&#xcd;" horiz-adv-x="692" 
d="M311 1231q0 33 9.5 47t35.5 31l326 186q55 -19 55 -68t-37 -67l-352 -172q-37 10 -37 43zM680 1020q0 -68 -119 -64h-100l-109 -858l191 2q10 -20 10 -51t-27.5 -42t-91.5 -11l-395 4q-8 14 -8 32q0 38 36.5 51t153.5 13q2 16 8.5 66.5t19 158t27.5 220t31.5 238
t24.5 179.5l-174 3q-11 11 -11 39t26 43.5t112 15.5h290l93 2q12 -24 12 -41z" />
    <glyph glyph-name="Icircumflex" unicode="&#xce;" horiz-adv-x="692" 
d="M588 1188q-48 0 -60 16t-27.5 44t-30.5 57.5t-28.5 57.5t-21.5 44l-172 -213q-66 0 -66 37q0 16 9.5 33.5t48.5 64.5l90 111q27 33 49 46t66 13t69 -14l133 -252q-12 -45 -59 -45zM680 1020q0 -68 -119 -64h-100l-109 -858l191 2q10 -20 10 -51t-27.5 -42t-91.5 -11
l-395 4q-8 14 -8 32q0 38 36.5 51t153.5 13q2 16 8.5 66.5t19 158t27.5 220t31.5 238t24.5 179.5l-174 3q-11 11 -11 39t26 43.5t112 15.5h290l93 2q12 -24 12 -41z" />
    <glyph glyph-name="Idieresis" unicode="&#xcf;" horiz-adv-x="692" 
d="M274 1235q-77 0 -77 68q0 35 25.5 58t68.5 23q78 0 78 -67q0 -39 -26 -60.5t-69 -21.5zM596 1235q-76 0 -76 68q0 35 25.5 58t68.5 23q78 0 78 -67q0 -39 -25.5 -60.5t-70.5 -21.5zM680 1020q0 -68 -119 -64h-100l-109 -858l191 2q10 -20 10 -51t-27.5 -42t-91.5 -11
l-395 4q-8 14 -8 32q0 38 36.5 51t153.5 13q2 16 8.5 66.5t19 158t27.5 220t31.5 238t24.5 179.5l-174 3q-11 11 -11 39t26 43.5t112 15.5h290l93 2q12 -24 12 -41z" />
    <glyph glyph-name="Eth" unicode="&#xd0;" horiz-adv-x="1161" 
d="M565 541q0 -58 -76 -58l-190 2l-43 -333q-4 -39 19.5 -50.5t140.5 -11.5q262 0 399 126t137 378q0 186 -113.5 277.5t-322.5 91.5l-158 -2l-47 -377h178l62 2q14 -21 14 -45zM88 997q0 60 111 60h346q281 0 408.5 -119.5t127.5 -297.5q0 -334 -181 -490t-481 -156
t-300 96q0 34 4 64l41 333h-115q-14 14 -14 48q0 49 55 49l86 2q15 115 53 375l-131 2q-10 10 -10 34z" />
    <glyph glyph-name="Ntilde" unicode="&#xd1;" horiz-adv-x="1185" 
d="M1026 1394q0 -46 -47 -81t-137 -39l-205 -8q-33 -2 -55.5 -19.5t-49.5 -72.5q-67 -4 -67 57t49 95t135 38l203 8q37 0 60.5 19.5t48.5 72.5q65 9 65 -70zM173 -2q-60 0 -60 46q0 30 3 53t7 59.5t13.5 112t25.5 195.5t32.5 247t34.5 250l-133 2q-8 14 -8 30
q0 35 35.5 51.5t116.5 16.5t110 -19.5t45 -44.5l492 -821l106 877q12 10 49 10q65 0 56 -86l-117 -957q-28 -22 -73 -22q-46 0 -58 9t-23 26l-497 848l-109 -873q-14 -10 -48 -10z" />
    <glyph glyph-name="Ograve" unicode="&#xd2;" horiz-adv-x="1155" 
d="M774 1250q0 -28 -16 -46t-39 -20l-277 205q-22 16 -22 50q1 61 80 79l241 -209q33 -31 33 -59zM876.5 863.5q-73.5 103.5 -260.5 103.5t-294 -155.5t-107 -360.5q0 -204 84 -289.5t262 -85.5t283.5 155.5t105.5 342.5q0 186 -73.5 289.5zM1077 602q0 -118 -35.5 -234
t-146.5 -249t-371 -133q-207 0 -322.5 98t-115.5 326q0 301 150 475t415 174q218 0 322 -114t104 -343z" />
    <glyph glyph-name="Oacute" unicode="&#xd3;" horiz-adv-x="1155" 
d="M631 1231q0 33 9 47t36 31l325 186q56 -19 56 -68t-37 -67l-352 -172q-37 10 -37 43zM876.5 863.5q-73.5 103.5 -260.5 103.5t-294 -155.5t-107 -360.5q0 -204 84 -289.5t262 -85.5t283.5 155.5t105.5 342.5q0 186 -73.5 289.5zM1077 602q0 -118 -35.5 -234t-146.5 -249
t-371 -133q-207 0 -322.5 98t-115.5 326q0 301 150 475t415 174q218 0 322 -114t104 -343z" />
    <glyph glyph-name="Ocircumflex" unicode="&#xd4;" horiz-adv-x="1155" 
d="M477 1220.5q0 26.5 9.5 44t45.5 64.5l91 111q27 33 49 46t65 13t70 -14l133 -252q-12 -45 -60 -45t-59 16q-12 16 -27.5 44t-30.5 57.5t-28.5 57.5t-21.5 44l-172 -213q-64 0 -64 26.5zM876.5 863.5q-73.5 103.5 -260.5 103.5t-294 -155.5t-107 -360.5q0 -204 84 -289.5
t262 -85.5t283.5 155.5t105.5 342.5q0 186 -73.5 289.5zM1077 602q0 -118 -35.5 -234t-146.5 -249t-371 -133q-207 0 -322.5 98t-115.5 326q0 301 150 475t415 174q218 0 322 -114t104 -343z" />
    <glyph glyph-name="Otilde" unicode="&#xd5;" horiz-adv-x="1155" 
d="M1034 1394q0 -46 -47 -81t-137 -39l-205 -8q-33 -2 -55.5 -19.5t-48.5 -72.5q-68 -4 -68 57t49 95t135 38l203 8q37 0 60.5 19.5t48.5 72.5q65 9 65 -70zM876.5 863.5q-73.5 103.5 -260.5 103.5t-294 -155.5t-107 -360.5q0 -204 84 -289.5t262 -85.5t283.5 155.5
t105.5 342.5q0 186 -73.5 289.5zM1077 602q0 -118 -35.5 -234t-146.5 -249t-371 -133q-207 0 -322.5 98t-115.5 326q0 301 150 475t415 174q218 0 322 -114t104 -343z" />
    <glyph glyph-name="Odieresis" unicode="&#xd6;" horiz-adv-x="1155" 
d="M545 1384q73 0 73 -67q0 -39 -25.5 -60.5t-70.5 -21.5q-76 0 -76 68q0 35 26 58t73 23zM928 1384q73 0 73 -67q0 -82 -94 -82q-76 0 -76 68q0 35 25 58t72 23zM876.5 863.5q-73.5 103.5 -260.5 103.5t-294 -155.5t-107 -360.5q0 -204 84 -289.5t262 -85.5t283.5 155.5
t105.5 342.5q0 186 -73.5 289.5zM1077 602q0 -118 -35.5 -234t-146.5 -249t-371 -133q-207 0 -322.5 98t-115.5 326q0 301 150 475t415 174q218 0 322 -114t104 -343z" />
    <glyph glyph-name="multiply" unicode="&#xd7;" horiz-adv-x="880" 
d="M607 133q-32 0 -50 23l-158 182l-198 -186q-25 -20 -53 -20t-42 17t-14 35l244 230l-191 221q0 31 19.5 47t49.5 16t52 -22l158 -184l205 192q20 20 51 21q55 -1 55 -58l-248 -229l191 -223q0 -62 -71 -62z" />
    <glyph glyph-name="Oslash" unicode="&#xd8;" horiz-adv-x="1155" 
d="M611 969q-90 0 -168 -46t-154 -156.5t-76 -325.5q0 -214 113 -306l436 811q-61 23 -151 23zM560 74q94 0 168.5 46t149 155.5t74.5 319.5t-110 306l-439 -807q63 -20 157 -20zM901 1004q176 -101 176 -384t-146.5 -458.5t-406.5 -175.5q-92 0 -168 18l-75 -137
q-12 -25 -45 -25t-56 33l90 162q-184 96 -184 385t150 463t415 174q88 0 160 -19l68 125q21 39 45 39q52 0 69 -30z" />
    <glyph glyph-name="Ugrave" unicode="&#xd9;" horiz-adv-x="1146" 
d="M762 1251q0 -29 -15 -47t-38 -20l-277 205q-22 16 -22 50t23.5 53t53.5 26l242 -209q33 -29 33 -58zM1023 1063q42 0 42 -77t-10.5 -155.5t-14.5 -111.5l-39 -305q-29 -217 -155 -319.5t-318 -102.5t-289.5 65.5t-97.5 223.5q0 98 84 680l-133 2q-8 14 -8 30q0 68 140 68
q101 0 120.5 -11t15.5 -32q-84 -630 -84 -728t60 -151t200 -53q291 0 334 262q47 255 86 703q25 12 67 12z" />
    <glyph glyph-name="Uacute" unicode="&#xda;" horiz-adv-x="1146" 
d="M633 1231q0 33 9 47t36 31l326 186q55 -19 55 -68t-37 -67l-352 -172q-37 10 -37 43zM1023 1063q42 0 42 -77t-10.5 -155.5t-14.5 -111.5l-39 -305q-29 -217 -155 -319.5t-318 -102.5t-289.5 65.5t-97.5 223.5q0 98 84 680l-133 2q-8 14 -8 30q0 68 140 68
q101 0 120.5 -11t15.5 -32q-84 -630 -84 -728t60 -151t200 -53q291 0 334 262q47 255 86 703q25 12 67 12z" />
    <glyph glyph-name="Ucircumflex" unicode="&#xdb;" horiz-adv-x="1146" 
d="M934 1233q-16 -45 -61 -45t-58 16q-17 23 -57.5 100.5t-50.5 102.5l-175 -213q-63 0 -63 26.5t9 44t46 64.5l90 111q48 59 103 59t82 -14zM1023 1063q42 0 42 -77t-10.5 -155.5t-14.5 -111.5l-39 -305q-29 -217 -155 -319.5t-318 -102.5t-289.5 65.5t-97.5 223.5
q0 98 84 680l-133 2q-8 14 -8 30q0 68 140 68q101 0 120.5 -11t15.5 -32q-84 -630 -84 -728t60 -151t200 -53q291 0 334 262q47 255 86 703q25 12 67 12z" />
    <glyph glyph-name="Udieresis" unicode="&#xdc;" horiz-adv-x="1146" 
d="M530 1384q74 0 74 -67q0 -82 -86 -82t-86 68q0 35 25.5 58t72.5 23zM895 1235q-78 0 -78 68q0 35 25.5 58t68.5 23q78 0 78 -67q0 -39 -25.5 -60.5t-68.5 -21.5zM1023 1063q42 0 42 -77t-10.5 -155.5t-14.5 -111.5l-39 -305q-29 -217 -155 -319.5t-318 -102.5
t-289.5 65.5t-97.5 223.5q0 98 84 680l-133 2q-8 14 -8 30q0 68 140 68q101 0 120.5 -11t15.5 -32q-84 -630 -84 -728t60 -151t200 -53q291 0 334 262q47 255 86 703q25 12 67 12z" />
    <glyph glyph-name="Yacute" unicode="&#xdd;" horiz-adv-x="919" 
d="M49 995q0 68 137 68q35 0 49.5 -11.5t30.5 -43.5l203 -422l393 469q18 6 41 6q39 0 39 -39t-27 -70l-395 -458l-61 -486q-25 -10 -63 -10t-51 13.5t-13 41.5l51 420l-242 488l-84 2q-8 10 -8 32zM500 1231q0 33 10 47t37 31l323 186q56 -19 56 -68t-35 -67l-354 -172
q-37 10 -37 43z" />
    <glyph glyph-name="Thorn" unicode="&#xde;" 
d="M455 362q131 0 214 65t83 194q0 194 -254 194l-158 -2l-55 -440q113 -11 170 -11zM88 1006q0 57 160 57q72 0 96.5 -12.5t20.5 -51.5l-13 -88h170q180 0 269.5 -70.5t89.5 -180.5q0 -194 -128 -287.5t-319 -93.5q-78 0 -160 8l-34 -279q-27 -10 -63 -10t-49 11t-13 44
l2 53q10 90 22.5 179.5t31.5 249.5t58 426l-133 2q-8 13 -8 43z" />
    <glyph glyph-name="germandbls" unicode="&#xdf;" horiz-adv-x="1034" 
d="M748 953q0 120 -190 120q-112 0 -173 -83t-80 -257l-69 -674q-33 -334 -139.5 -374.5t-164.5 -40.5t-74 15t-16 43t15 42q94 0 131 9t54 35q52 79 73 292l65 627q44 462 414 462q199 0 233.5 -79.5t34.5 -117.5q0 -72 -27 -119t-97 -107t-91.5 -91.5t-21.5 -61.5
q0 -58 33 -86.5t133 -66.5q100 -37 136 -84.5t36 -105.5q0 -115 -80 -185.5t-215 -70.5t-216 33.5t-81 91.5q0 27 13 39t40 20q84 -96 266 -96q78 0 118 39t40 88t-31.5 84.5t-122.5 68.5q-92 33 -138 76t-46 112t29 119t94 107q65 56 90 91.5t25 85.5z" />
    <glyph glyph-name="agrave" unicode="&#xe0;" 
d="M246 1228q0 61 80 79l241 -209q33 -29 33 -58t-15 -47t-38 -20l-277 205q-24 16 -24 50zM506 733q-143 0 -223 -108.5t-80 -290.5q0 -129 38 -191.5t133 -62.5t152.5 50t77.5 81l68 485q-68 37 -166 37zM709 -6q-103 0 -103 85q0 42 8 83q-73 -170 -290 -170
q-248 0 -248 301q0 251 118.5 390.5t290.5 139.5q88 0 132.5 -22.5t58.5 -73.5q8 53 22.5 73.5t48.5 20.5t62 -20l-66 -475q-10 -78 -16 -121t-6 -71t10 -35t45 -7t84 14q18 -14 19 -45q0 -67 -170 -67z" />
    <glyph glyph-name="aacute" unicode="&#xe1;" 
d="M487 1020q0 33 9.5 47t35.5 31l326 186q55 -19 55 -68t-36 -67l-353 -172q-37 10 -37 43zM506 733q-143 0 -223 -108.5t-80 -290.5q0 -129 38 -191.5t133 -62.5t152.5 50t77.5 81l68 485q-68 37 -166 37zM709 -6q-103 0 -103 85q0 42 8 83q-73 -170 -290 -170
q-248 0 -248 301q0 251 118.5 390.5t290.5 139.5q88 0 132.5 -22.5t58.5 -73.5q8 53 22.5 73.5t48.5 20.5t62 -20l-66 -475q-10 -78 -16 -121t-6 -71t10 -35t45 -7t84 14q18 -14 19 -45q0 -67 -170 -67z" />
    <glyph glyph-name="acircumflex" unicode="&#xe2;" 
d="M716 948q-46 0 -60 16t-29 44t-30 58t-28.5 57.5t-21.5 43.5l-172 -213q-66 0 -66 39q0 16 9.5 32.5t48.5 64.5l90 110q27 33 49 47.5t61 14.5t74 -15l133 -254q-12 -45 -58 -45zM506 733q-143 0 -223 -108.5t-80 -290.5q0 -129 38 -191.5t133 -62.5t152.5 50t77.5 81
l68 485q-68 37 -166 37zM709 -6q-103 0 -103 85q0 42 8 83q-73 -170 -290 -170q-248 0 -248 301q0 251 118.5 390.5t290.5 139.5q88 0 132.5 -22.5t58.5 -73.5q8 53 22.5 73.5t48.5 20.5t62 -20l-66 -475q-10 -78 -16 -121t-6 -71t10 -35t45 -7t84 14q18 -14 19 -45
q0 -67 -170 -67z" />
    <glyph glyph-name="atilde" unicode="&#xe3;" 
d="M854 1169q0 -46 -47 -81t-137 -39l-205 -9q-33 -2 -55.5 -19t-49.5 -73q-67 -4 -67 60q0 59 49 93t135 38l203 8q37 0 60.5 19.5t47.5 72.5q29 4 47.5 -10t18.5 -60zM506 733q-143 0 -223 -108.5t-80 -290.5q0 -129 38 -191.5t133 -62.5t152.5 50t77.5 81l68 485
q-68 37 -166 37zM709 -6q-103 0 -103 85q0 42 8 83q-73 -170 -290 -170q-248 0 -248 301q0 251 118.5 390.5t290.5 139.5q88 0 132.5 -22.5t58.5 -73.5q8 53 22.5 73.5t48.5 20.5t62 -20l-66 -475q-10 -78 -16 -121t-6 -71t10 -35t45 -7t84 14q18 -14 19 -45q0 -67 -170 -67
z" />
    <glyph glyph-name="adieresis" unicode="&#xe4;" 
d="M414 1149q73 0 73 -68q0 -82 -86 -82t-86 68q0 35 26 58.5t73 23.5zM780 1149q74 0 74 -68q0 -39 -25.5 -60.5t-68.5 -21.5q-78 0 -78 68q0 35 25.5 58.5t72.5 23.5zM506 733q-143 0 -223 -108.5t-80 -290.5q0 -129 38 -191.5t133 -62.5t152.5 50t77.5 81l68 485
q-68 37 -166 37zM709 -6q-103 0 -103 85q0 42 8 83q-73 -170 -290 -170q-248 0 -248 301q0 251 118.5 390.5t290.5 139.5q88 0 132.5 -22.5t58.5 -73.5q8 53 22.5 73.5t48.5 20.5t62 -20l-66 -475q-10 -78 -16 -121t-6 -71t10 -35t45 -7t84 14q18 -14 19 -45q0 -67 -170 -67
z" />
    <glyph glyph-name="aring" unicode="&#xe5;" 
d="M481 1065q0 -53 58 -53q73 -1 73 69q0 55 -57 56q-33 0 -53.5 -18.5t-20.5 -53.5zM573 1214q132 0 132 -128q0 -74 -52.5 -111t-118.5 -37q-146 0 -147 119q0 84 54.5 120.5t131.5 36.5zM506 733q-143 0 -223 -108.5t-80 -290.5q0 -129 38 -191.5t133 -62.5t152.5 50
t77.5 81l68 485q-68 37 -166 37zM709 -6q-103 0 -103 85q0 42 8 83q-73 -170 -290 -170q-248 0 -248 301q0 251 118.5 390.5t290.5 139.5q88 0 132.5 -22.5t58.5 -73.5q8 53 22.5 73.5t48.5 20.5t62 -20l-66 -475q-10 -78 -16 -121t-6 -71t10 -35t45 -7t84 14q18 -14 19 -45
q0 -67 -170 -67z" />
    <glyph glyph-name="ae" unicode="&#xe6;" horiz-adv-x="1382" 
d="M627 272v74q-99 6 -209 6q-226 0 -225 -139q0 -70 42.5 -99.5t120.5 -29.5q166 0 275 154q-4 27 -4 34zM1200 614q0 119 -151 119t-210 -90t-75 -164q70 -12 196 -12q240 0 240 147zM756 702q121 121 311 121q244 0 244 -194q0 -246 -357 -246q-109 0 -202 14
q-2 -12 -2 -23v-22q0 -266 219 -266q138 0 268 59q25 -18 25 -47q0 -41 -72 -76.5t-236 -35.5q-233 0 -299 178q-90 -172 -327 -172q-265 0 -265 211q0 123 91.5 179t298.5 56q52 0 184 -10q5 46 16 102q35 189 -154 189q-180 0 -298 -127q-35 4 -46.5 16.5t-11.5 57.5
t103.5 101t244.5 56q140 0 193 -33.5t72 -87.5z" />
    <glyph glyph-name="ccedilla" unicode="&#xe7;" horiz-adv-x="739" 
d="M694 94q0 -84 -202 -102q4 -23 4 -29v-65q0 -104 -54 -167t-162 -62t-108 42t12 58q40 -5 78 -5q75 0 96 33t21 127l-2 66q-297 8 -297 332q0 231 116.5 366t340.5 135q106 0 148 -20.5t42 -60.5t-31 -58q-77 29 -163 29q-158 0 -244 -90t-86 -250t53 -223.5t174 -63.5
t242 55q22 -18 22 -47z" />
    <glyph glyph-name="egrave" unicode="&#xe8;" horiz-adv-x="827" 
d="M651 614q0 119 -151 119t-210 -90t-75 -164q70 -12 197 -12q239 0 239 147zM420 86q140 0 268 59q25 -18 25 -47q0 -41 -72 -76.5t-235 -35.5q-326 0 -326 340q0 228 114 362.5t314 134.5q254 0 254 -194q0 -246 -356 -246q-110 0 -203 14q-2 -12 -2 -23v-22
q0 -266 219 -266zM274 1228q0 60 80 79l242 -209q33 -31 33 -59t-16.5 -46t-39.5 -20l-276 205q-23 16 -23 50z" />
    <glyph glyph-name="eacute" unicode="&#xe9;" horiz-adv-x="827" 
d="M651 614q0 119 -151 119t-210 -90t-75 -164q70 -12 197 -12q239 0 239 147zM420 86q140 0 268 59q25 -18 25 -47q0 -41 -72 -76.5t-235 -35.5q-326 0 -326 340q0 228 114 362.5t314 134.5q254 0 254 -194q0 -246 -356 -246q-110 0 -203 14q-2 -12 -2 -23v-22
q0 -266 219 -266zM514 1020q0 33 9 47t36 31l326 186q53 -18 53 -68t-35 -67l-352 -172q-37 10 -37 43z" />
    <glyph glyph-name="ecircumflex" unicode="&#xea;" horiz-adv-x="827" 
d="M651 614q0 119 -151 119t-210 -90t-75 -164q70 -12 197 -12q239 0 239 147zM420 86q140 0 268 59q25 -18 25 -47q0 -41 -72 -76.5t-235 -35.5q-326 0 -326 340q0 228 114 362.5t314 134.5q254 0 254 -194q0 -246 -356 -246q-110 0 -203 14q-2 -12 -2 -23v-22
q0 -266 219 -266zM721 948q-35 0 -48 16t-28.5 44t-31 58t-29 57.5t-21.5 43.5l-172 -213q-66 0 -65 39q0 16 10 32.5t47 64.5l90 110q27 33 49.5 47.5t61.5 14.5t73 -15l134 -254q-12 -45 -70 -45z" />
    <glyph glyph-name="edieresis" unicode="&#xeb;" horiz-adv-x="827" 
d="M651 614q0 119 -151 119t-210 -90t-75 -164q70 -12 197 -12q239 0 239 147zM420 86q140 0 268 59q25 -18 25 -47q0 -41 -72 -76.5t-235 -35.5q-326 0 -326 340q0 228 114 362.5t314 134.5q254 0 254 -194q0 -246 -356 -246q-110 0 -203 14q-2 -12 -2 -23v-22
q0 -266 219 -266zM418 1149q74 0 74 -68q0 -82 -86 -82t-87 68q0 35 26 58.5t73 23.5zM784 1149q74 0 74 -68q0 -39 -25.5 -60.5t-68.5 -21.5q-78 0 -78 68q0 35 25.5 58.5t72.5 23.5z" />
    <glyph glyph-name="igrave" unicode="&#xec;" horiz-adv-x="475" 
d="M233 -6q-114 0 -114 96q0 51 12 135l70 486l-129 -4q-14 11 -14 39q-1 61 178 61q59 0 77.5 -15.5t12.5 -60.5l-43 -317q-14 -102 -24.5 -178t-10.5 -103t10 -34t45 -7t84 14q16 -12 16 -45q0 -67 -170 -67zM387 1039q0 -28 -16 -46t-39 -20l-277 205q-23 16 -23 50
q1 61 81 79l241 -209q33 -31 33 -59z" />
    <glyph glyph-name="iacute" unicode="&#xed;" horiz-adv-x="475" 
d="M233 -6q-114 0 -114 96q0 51 12 135l70 486l-129 -4q-14 11 -14 39q-1 61 178 61q59 0 77.5 -15.5t12.5 -60.5l-43 -317q-14 -102 -24.5 -178t-10.5 -103t10 -34t45 -7t84 14q16 -12 16 -45q0 -67 -170 -67zM217 1020q0 33 9.5 47t35.5 31l326 186q55 -19 55 -68t-37 -67
l-352 -172q-37 10 -37 43z" />
    <glyph glyph-name="icircumflex" unicode="&#xee;" horiz-adv-x="475" 
d="M233 -6q-114 0 -114 96q0 51 12 135l70 486l-129 -4q-14 11 -14 39q-1 61 178 61q59 0 77.5 -15.5t12.5 -60.5l-43 -317q-14 -102 -24.5 -178t-10.5 -103t10 -34t45 -7t84 14q16 -12 16 -45q0 -67 -170 -67zM451 948q-33 0 -47 16t-29 44t-30 58t-28.5 57.5t-21.5 43.5
l-172 -213q-66 0 -66 39q0 16 9.5 32.5t48.5 64.5l90 110q27 33 49 47.5t61 14.5t74 -15l133 -254q-12 -45 -71 -45z" />
    <glyph glyph-name="idieresis" unicode="&#xef;" horiz-adv-x="475" 
d="M180 1149q74 0 74 -68q0 -39 -25.5 -60.5t-70.5 -21.5q-76 0 -76 68q0 35 25.5 58.5t72.5 23.5zM461 1149q74 0 74 -68q0 -82 -95 -82q-75 0 -75 68q0 35 24.5 58.5t71.5 23.5zM308 96q41 0 77 15q29 -13 29 -48q0 -69 -181 -69q-57 0 -85.5 22.5t-28.5 75.5t12 133
l68 482l-127 -2q-14 11 -14 41q-1 60 178 61q59 0 78.5 -15.5t13.5 -62.5l-45 -315q-12 -100 -22.5 -176t-10.5 -103t9 -33t49 -6z" />
    <glyph glyph-name="eth" unicode="&#xf0;" horiz-adv-x="962" 
d="M446 578q-112 0 -185 -67t-73 -183t60.5 -177t178.5 -61t200.5 102t103.5 259q-93 127 -285 127zM885 1026q0 -50 -64 -70l-26 -6q76 -135 75 -311q0 -266 -116.5 -458.5t-352.5 -192.5q-152 0 -242.5 86t-90.5 250t107.5 259t287.5 95t224 -73t50 -105q4 74 4 140
q0 172 -63 269l-242 -75q-32 14 -30 44t14 41t35 19l157 51q-131 114 -424 152q-10 16 -10 37q0 53 84 53q201 0 316.5 -77t158.5 -126l117 43q31 -20 31 -45z" />
    <glyph glyph-name="ntilde" unicode="&#xf1;" horiz-adv-x="950" 
d="M874 1169q0 -46 -47 -81t-137 -39l-205 -9q-33 -2 -55 -19t-49 -73q-68 -4 -68 60q0 59 49.5 93t135.5 38l202 8q37 0 60.5 19.5t48.5 72.5q65 9 65 -70zM162 -6q-38 0 -47 16t-9 52t8.5 79t12.5 84l63 486l-122 -4q-14 13 -14 41q-1 58 177 59q59 0 79 -15.5t9 -60.5
l-26 -127q27 91 120.5 151t205.5 60t160 -59.5t32 -157.5l-51 -317q-8 -61 -14 -90t-5 -57q0 -28 10.5 -35t43.5 -7t86 14q16 -12 16 -45q0 -67 -170 -67q-57 0 -87 22.5t-30 76.5t15 132l9 55q9 54 31.5 179t22.5 155q9 105 -123 105q-66 0 -142.5 -49t-129.5 -146
l-17 -110q-6 -49 -28.5 -214t-22.5 -196q-25 -10 -63 -10z" />
    <glyph glyph-name="ograve" unicode="&#xf2;" horiz-adv-x="911" 
d="M285 1228q0 61 80 79l241 -209q33 -29 33 -58t-15 -47t-38 -20l-277 205q-24 16 -24 50zM663.5 659.5q-53.5 69.5 -179.5 69.5t-205.5 -110t-79.5 -256t53 -212.5t180 -66.5t206 113t79 253t-53.5 209.5zM834 468q0 -205 -116 -341.5t-321 -136.5q-317 0 -317 346
q0 217 121 351t313 134q251 0 285.5 -130.5t34.5 -222.5z" />
    <glyph glyph-name="oacute" unicode="&#xf3;" horiz-adv-x="911" 
d="M485 1020q0 33 10.5 47t34.5 31l326 186q55 -19 55 -68t-37 -67l-352 -172q-37 10 -37 43zM663.5 659.5q-53.5 69.5 -179.5 69.5t-205.5 -110t-79.5 -256t53 -212.5t180 -66.5t206 113t79 253t-53.5 209.5zM834 468q0 -205 -116 -341.5t-321 -136.5q-317 0 -317 346
q0 217 121 351t313 134q251 0 285.5 -130.5t34.5 -222.5z" />
    <glyph glyph-name="ocircumflex" unicode="&#xf4;" horiz-adv-x="911" 
d="M746 948q-46 0 -58 16q-21 29 -61 106.5t-47 96.5l-174 -213q-64 0 -64 39q0 16 9 32.5t46 64.5l90 110q51 62 100 62t85 -15l135 -254q-15 -45 -61 -45zM663.5 659.5q-53.5 69.5 -179.5 69.5t-205.5 -110t-79.5 -256t53 -212.5t180 -66.5t206 113t79 253t-53.5 209.5z
M834 468q0 -205 -116 -341.5t-321 -136.5q-317 0 -317 346q0 217 121 351t313 134q251 0 285.5 -130.5t34.5 -222.5z" />
    <glyph glyph-name="otilde" unicode="&#xf5;" horiz-adv-x="911" 
d="M883 1169q0 -46 -47.5 -81t-137.5 -39l-204 -9q-33 -2 -55.5 -19t-49.5 -73q-67 -4 -67 60q0 59 49 93t135 38l203 8q37 0 60.5 19.5t47.5 72.5q29 4 47.5 -10t18.5 -60zM663.5 659.5q-53.5 69.5 -179.5 69.5t-205.5 -110t-79.5 -256t53 -212.5t180 -66.5t206 113t79 253
t-53.5 209.5zM834 468q0 -205 -116 -341.5t-321 -136.5q-317 0 -317 346q0 217 121 351t313 134q251 0 285.5 -130.5t34.5 -222.5z" />
    <glyph glyph-name="odieresis" unicode="&#xf6;" horiz-adv-x="911" 
d="M418 1149q74 0 74 -68q0 -39 -26 -60.5t-69 -21.5q-78 0 -78 68q0 35 26 58.5t73 23.5zM784 1149q74 0 74 -68q0 -39 -25.5 -60.5t-70.5 -21.5q-76 0 -76 68q0 35 25.5 58.5t72.5 23.5zM663.5 659.5q-53.5 69.5 -179.5 69.5t-205.5 -110t-79.5 -256t53 -212.5t180 -66.5
t206 113t79 253t-53.5 209.5zM834 468q0 -205 -116 -341.5t-321 -136.5q-317 0 -317 346q0 217 121 351t313 134q251 0 285.5 -130.5t34.5 -222.5z" />
    <glyph glyph-name="divide" unicode="&#xf7;" horiz-adv-x="1124" 
d="M674 204q0 -42 -33 -79q-37 -33 -79 -33t-79 33q-33 37 -33 79t33 79q33 33 79 33t79 -33q33 -37 33 -79zM37 575h1050v-98h-1050v98zM672 844.5q0 -45.5 -32 -78.5t-79 -33t-79 32t-32 79t32 79t79 31.5t79 -32.5t32 -77.5z" />
    <glyph glyph-name="oslash" unicode="&#xf8;" horiz-adv-x="911" 
d="M479 731q-60 0 -114 -31.5t-111 -111.5t-57 -234t69 -221l316 586q-43 12 -103 12zM438 82q125 0 203 113t78 261t-64 216l-313 -580q34 -10 96 -10zM713 772q121 -79 121 -294t-116 -351.5t-321 -136.5q-55 0 -104 12l-62 -115q-20 -38 -54 -22t-42 31l74 139
q-129 80 -129 299t121 353t313 134q61 0 115 -12l63 115q18 39 56 39t55 -31z" />
    <glyph glyph-name="ugrave" unicode="&#xf9;" horiz-adv-x="946" 
d="M602 1039q0 -28 -16 -46t-39 -20l-277 205q-22 16 -22 50q1 61 80 79l241 -209q33 -31 33 -59zM713 -6q-113 0 -113 78q0 64 10 104q-39 -94 -125 -140t-183 -46t-150.5 47t-32.5 174l76 500l-127 -4q-14 13 -14 41q-1 58 177 59q59 0 78 -15.5t10 -60.5l-77 -541
q-10 -61 20.5 -82.5t94.5 -21.5t135 43t124 129l70 428q12 78 27.5 100.5t53.5 22.5t62 -21l-81 -507q-19 -117 -19 -146t10 -36t45 -7t84 14q16 -12 17 -45q0 -67 -172 -67z" />
    <glyph glyph-name="uacute" unicode="&#xfa;" horiz-adv-x="946" 
d="M479 1020q0 33 9.5 47t35.5 31l326 186q55 -19 55 -68t-37 -67l-352 -172q-37 10 -37 43zM713 -6q-113 0 -113 78q0 64 10 104q-39 -94 -125 -140t-183 -46t-150.5 47t-32.5 174l76 500l-127 -4q-14 13 -14 41q-1 58 177 59q59 0 78 -15.5t10 -60.5l-77 -541
q-10 -61 20.5 -82.5t94.5 -21.5t135 43t124 129l70 428q12 78 27.5 100.5t53.5 22.5t62 -21l-81 -507q-19 -117 -19 -146t10 -36t45 -7t84 14q16 -12 17 -45q0 -67 -172 -67z" />
    <glyph glyph-name="ucircumflex" unicode="&#xfb;" horiz-adv-x="946" 
d="M721 948q-45 0 -57 16t-27.5 44t-31 58t-29 57.5t-21.5 43.5l-172 -213q-66 0 -66 39q0 16 9.5 32.5t48.5 64.5l88 110q51 62 100 62q50 0 84 -15l135 -254q-16 -45 -61 -45zM713 -6q-113 0 -113 78q0 64 10 104q-39 -94 -125 -140t-183 -46t-150.5 47t-32.5 174l76 500
l-127 -4q-14 13 -14 41q-1 58 177 59q59 0 78 -15.5t10 -60.5l-77 -541q-10 -61 20.5 -82.5t94.5 -21.5t135 43t124 129l70 428q12 78 27.5 100.5t53.5 22.5t62 -21l-81 -507q-19 -117 -19 -146t10 -36t45 -7t84 14q16 -12 17 -45q0 -67 -172 -67z" />
    <glyph glyph-name="udieresis" unicode="&#xfc;" horiz-adv-x="946" 
d="M385 1149q74 0 74 -68q0 -82 -86 -82t-86 68q0 35 25.5 58.5t72.5 23.5zM770 1149q74 0 74 -68q0 -39 -25.5 -60.5t-68.5 -21.5q-78 0 -78 68q0 35 25.5 58.5t72.5 23.5zM713 -6q-113 0 -113 78q0 64 10 104q-39 -94 -125 -140t-183 -46t-150.5 47t-32.5 174l76 500
l-127 -4q-14 13 -14 41q-1 58 177 59q59 0 78 -15.5t10 -60.5l-77 -541q-10 -61 20.5 -82.5t94.5 -21.5t135 43t124 129l70 428q12 78 27.5 100.5t53.5 22.5t62 -21l-81 -507q-19 -117 -19 -146t10 -36t45 -7t84 14q16 -12 17 -45q0 -67 -172 -67z" />
    <glyph glyph-name="yacute" unicode="&#xfd;" horiz-adv-x="823" 
d="M414 1020q0 33 9 47t36 31l325 186q54 -19 54 -68t-35 -67l-352 -172q-37 10 -37 43zM659 640q0 64 -12 169q18 12 58 12q77 0 77 -143q0 -78 -11 -136.5t-47 -124t-105.5 -151.5t-152.5 -182t-124 -162.5t-81 -141.5q-77 -145 -259 -145q-72 0 -92.5 18.5t-20.5 46.5
t19 44q14 -2 28 -2h25q150 0 189 55t61 99.5t41 74.5l-119 740l-92 -2q-14 13 -14 39q0 60 129 59q59 0 74.5 -15.5t23.5 -60.5l102 -635q207 260 244 323.5t48 110t11 110.5z" />
    <glyph glyph-name="thorn" unicode="&#xfe;" horiz-adv-x="888" 
d="M500 719q-126 0 -226 -195l-51 -395q39 -23 77 -33t109 -10q131 0 210 117t79 247t-45 199.5t-153 69.5zM549 815q139 0 202.5 -89.5t63.5 -221.5q0 -239 -119.5 -374.5t-306.5 -135.5q-135 0 -176 59l-55 -405q-16 -10 -56 -10t-50.5 16t-10.5 46t7 79t11 90l164 1208
q10 70 24.5 93.5t54.5 23.5t60 -14l-69 -533q64 168 256 168z" />
    <glyph glyph-name="ydieresis" unicode="&#xff;" horiz-adv-x="823" 
d="M391 1149q72 0 72 -68q0 -82 -94 -82q-76 0 -76 68q0 35 25.5 58.5t72.5 23.5zM756 1149q73 0 73 -68q0 -82 -86 -82t-86 68q0 35 26 58.5t73 23.5zM659 640q0 64 -12 169q18 12 58 12q77 0 77 -143q0 -78 -11 -136.5t-47 -124t-105.5 -151.5t-152.5 -182t-124 -162.5
t-81 -141.5q-77 -145 -259 -145q-72 0 -92.5 18.5t-20.5 46.5t19 44q14 -2 28 -2h25q150 0 189 55t61 99.5t41 74.5l-119 740l-92 -2q-14 13 -14 39q0 60 129 59q59 0 74.5 -15.5t23.5 -60.5l102 -635q207 260 244 323.5t48 110t11 110.5z" />
    <glyph glyph-name="OE" unicode="&#x152;" horiz-adv-x="1628" 
d="M928 807q-80 160 -290 160t-316.5 -155.5t-106.5 -360.5q0 -204 84 -289.5t254 -85.5q84 0 164 41t141 112q15 157 33 287q19 131 37 291zM651 1059q196 0 297 -103l6 35q4 31 27 48.5t82 17.5l467 2l94 2q10 -16 10 -41q0 -66 -118 -66l-435 2l-45 -352h430q6 -16 7 -37
q0 -65 -93 -65l-356 2l-45 -354q-4 -29 6 -37.5t53 -8.5h471q24 -49 0.5 -74.5t-122.5 -28.5t-215 -3t-182 2t-99 9t-40 22.5t-7 42.5v20q-134 -108 -331 -108q-196 0 -311.5 98t-115.5 326q0 301 150 475t415 174z" />
    <glyph glyph-name="oe" unicode="&#x153;" horiz-adv-x="1390" 
d="M643 326q0 163 59 278q-49 125 -215 125q-128 0 -208 -110t-80 -256t53 -212.5t184 -66.5t221 119q-14 47 -14 123zM1214 614q0 119 -152 119t-209.5 -90t-74.5 -164q70 -12 197 -12q239 0 239 147zM1325 629q0 -246 -356 -246q-110 0 -203 14q-2 -12 -2 -23v-22
q0 -266 219 -266q140 0 268 59q25 -18 25 -47q0 -41 -71.5 -76.5t-235.5 -35.5q-197 0 -277 127q-61 -61 -128.5 -92t-166.5 -31q-317 0 -317 346q0 217 121 351t313 134q104 0 162.5 -29.5t93.5 -89.5q117 121 309 121q246 0 246 -194z" />
    <glyph glyph-name="Scaron" unicode="&#x160;" horiz-adv-x="882" 
d="M670 255q0 67 -47 115t-155 85q-194 67 -254 130.5t-60 185.5q0 123 111 212.5t272 89.5t233 -31.5t72 -77.5t-39 -65q-116 72 -250 72q-135 0 -207 -54t-72 -132t53 -124t178 -89q126 -42 173 -70.5t83 -76t36 -121.5q0 -138 -102 -224t-281 -86q-367 0 -367 133
q0 49 49 61q98 -102 276.5 -102t238 51t59.5 118zM831 1460q0 -16 -9 -33.5t-48 -64.5l-90 -111q-27 -31 -49.5 -45t-61.5 -14t-73 14l-133 252q12 45 71 45q35 0 47 -17q45 -63 109 -200l172 213q65 0 65 -39z" />
    <glyph glyph-name="scaron" unicode="&#x161;" horiz-adv-x="724" 
d="M754 1217q0 -16 -9.5 -33t-48.5 -64l-88 -110q-51 -62 -102 -62q-52 0 -82 15l-135 254q16 45 60 45t61 -19q46 -74 106 -201l174 213q64 0 64 -38zM39 109q0 50 65 69q43 -49 115.5 -70.5t142.5 -21.5t114 34t44 84t-34.5 80t-113.5 58q-142 49 -191.5 101t-49.5 148
t90 164t212 68t181.5 -25.5t59.5 -60.5t-11.5 -48t-33.5 -21q-68 55 -179 55q-110 0 -156 -39t-46 -78q0 -69 35.5 -98t167.5 -78q114 -48 149 -89.5t35 -97.5q0 -109 -75.5 -179t-217.5 -70q-303 0 -303 115z" />
    <glyph glyph-name="Ydieresis" unicode="&#x178;" horiz-adv-x="919" 
d="M406 1235q-78 0 -78 68q0 35 25.5 58t68.5 23q78 0 78 -67q0 -39 -25.5 -60.5t-68.5 -21.5zM788 1235q-75 0 -75 68q0 35 25.5 58t68.5 23q78 0 78 -67q0 -39 -25.5 -60.5t-71.5 -21.5zM49 995q0 68 137 68q35 0 49.5 -11.5t30.5 -43.5l203 -422l393 469q18 6 47 6
q37 0 37 -43q0 -29 -31 -66l-395 -458l-61 -486q-25 -10 -63 -10t-51 13.5t-13 41.5l51 420l-242 488l-84 2q-8 10 -8 32z" />
    <glyph glyph-name="florin" unicode="&#x192;" horiz-adv-x="507" 
d="M653 1153q0 -25 -22 -47q-41 10 -117 10t-102.5 -12t-39.5 -34q-32 -56 -59 -273l211 2q11 -22 11 -49q0 -58 -113 -58h-44q-44 0 -79 2l-63 -635q-33 -334 -139.5 -374.5t-164.5 -40.5t-74 15t-16 43t15 42q94 0 133.5 9t59.5 38q42 62 65 289l59 614l-102 -2
q-14 14 -14 45t32.5 43.5t97.5 16.5q27 236 100.5 324.5t219.5 88.5q145 0 145 -57z" />
    <glyph glyph-name="circumflex" unicode="&#x2c6;" horiz-adv-x="833" 
d="M572 948q-46 0 -58 19q-29 34 -64.5 109t-43.5 91l-173 -213q-65 0 -65 39q0 16 9 32.5t48 64.5l88 110q27 33 50.5 47.5t63.5 14.5t71 -15l135 -254q-15 -45 -61 -45z" />
    <glyph glyph-name="tilde" unicode="&#x2dc;" horiz-adv-x="827" 
d="M713 1169q0 -46 -47.5 -81t-137.5 -39l-204 -9q-33 -2 -55.5 -19t-49.5 -73q-67 -4 -67 60q0 59 49 93t135 38l203 8q37 0 60.5 19.5t47.5 72.5q29 4 47.5 -10t18.5 -60z" />
    <glyph glyph-name="endash" unicode="&#x2013;" horiz-adv-x="1024" 
d="M936 436q0 -35 -8 -47h-830q-8 12 -8 47t8 47h830q8 -12 8 -47z" />
    <glyph glyph-name="emdash" unicode="&#x2014;" horiz-adv-x="2048" 
d="M2058 436q0 -35 -8 -47h-2052q-8 12 -8 47t8 47h2052q8 -12 8 -47z" />
    <glyph glyph-name="quoteleft" unicode="&#x2018;" horiz-adv-x="487" 
d="M401 766q0 -68 -86 -68t-134 47t-48 103q0 100 53 166q35 41 88.5 70.5t97.5 29.5t44 -37q0 -8 -2 -12q-90 -53 -123 -92t-33 -84t37 -61.5t98 -24.5q8 -16 8 -37z" />
    <glyph glyph-name="quoteright" unicode="&#x2019;" horiz-adv-x="487" 
d="M234 1112q86 0 134 -47t48 -103q0 -102 -44 -154t-97.5 -82t-97.5 -30t-44 37q0 8 2 12q90 51 123 91.5t33 85.5t-37 61t-98 25q-8 16 -9 36q1 68 87 68z" />
    <glyph glyph-name="quotesinglbase" unicode="&#x201a;" horiz-adv-x="487" 
d="M192 164q86 0 134.5 -47t48.5 -103q0 -100 -53 -166q-35 -41 -88.5 -70.5t-97.5 -29.5t-44 37q0 8 2 12q90 51 123 91t33 85t-37 61.5t-98 24.5q-8 16 -9 37q0 68 86 68z" />
    <glyph glyph-name="quotedblleft" unicode="&#x201c;" horiz-adv-x="841" 
d="M401 766q0 -68 -86 -68t-134 47t-48 103q0 100 53 166q35 41 88.5 70.5t97.5 29.5t44 -37q0 -8 -2 -12q-90 -53 -123 -92t-33 -84t37 -61.5t98 -24.5q8 -16 8 -37zM756 766q0 -68 -86 -68t-134.5 47t-48.5 103q1 101 45 154t97 82.5t97 29.5t44 -37q0 -8 -2 -12
q-90 -53 -123 -92t-33 -84t37 -61.5t99 -24.5q8 -16 8 -37z" />
    <glyph glyph-name="quotedblright" unicode="&#x201d;" horiz-adv-x="841" 
d="M502 1044q0 68 86 68t134 -47t48 -103q0 -101 -44 -153q-44 -53 -97.5 -83t-97.5 -30t-44 37q0 8 2 12q90 51 123 91.5t33 85.5t-37 61t-98 25q-8 16 -8 36zM234 1112q86 0 134 -47t48 -103q0 -102 -44 -154t-97.5 -82t-97.5 -30t-44 37q0 8 2 12q90 51 123 91.5t33 85.5
t-37 61t-98 25q-8 16 -9 36q1 68 87 68z" />
    <glyph glyph-name="quotedblbase" unicode="&#x201e;" horiz-adv-x="841" 
d="M461 96q0 68 86 68t134 -47t48 -103q0 -103 -44 -155t-97.5 -81.5t-97.5 -29.5t-44 37q0 8 3 12q90 51 122.5 91t32.5 85t-37 61.5t-98 24.5q-8 16 -8 37zM192 164q86 0 134.5 -47t48.5 -103q0 -100 -53 -166q-35 -41 -88.5 -70.5t-97.5 -29.5t-44 37q0 8 2 12
q90 51 123 91t33 85t-37 61.5t-98 24.5q-8 16 -9 37q0 68 86 68z" />
    <glyph glyph-name="dagger" unicode="&#x2020;" horiz-adv-x="966" 
d="M408.5 -313.5q-11.5 -14.5 -43.5 -14.5t-52 13l88 737q15 37 62 37t58.5 -8.5t17.5 -24.5l-113 -684q-6 -41 -17.5 -55.5zM111 586q0 30 8 57l325 -2l29 352q20 45 85 45t73 -41l-58 -358l324 4q8 -26 8 -56t-12 -55l-305 7h-187l-278 -7q-12 24 -12 54z" />
    <glyph glyph-name="daggerdbl" unicode="&#x2021;" horiz-adv-x="966" 
d="M441.5 -168q-17.5 -10 -68.5 -10t-60 39l58 354l-322 -2q-8 32 -8 53.5t12 55.5l303 -7h185l276 7l10 -58q0 -19 -8 -51l-321 2l-29 -348q-10 -25 -27.5 -35zM111 586q0 30 8 57l325 -2l29 352q20 45 85 45t73 -41l-58 -358l324 4q8 -26 8 -56t-12 -55l-305 7h-187
l-278 -7q-12 24 -12 54z" />
    <glyph glyph-name="bullet" unicode="&#x2022;" horiz-adv-x="591" 
d="M436 437q0 -50 -38 -87t-104 -37t-102 34t-36 89.5t38.5 94t109.5 38.5t101.5 -41t30.5 -91z" />
    <glyph glyph-name="ellipsis" unicode="&#x2026;" horiz-adv-x="1611" 
d="M287 170q84 0 84 -76q0 -45 -29 -69.5t-80 -24.5q-86 0 -86 58.5t28.5 85t82.5 26.5zM819 170q84 0 84 -76q0 -45 -28.5 -69.5t-79.5 -24.5q-88 0 -88 58.5t29.5 85t82.5 26.5zM1352 170q84 0 84 -76q0 -45 -29 -69.5t-80 -24.5q-86 0 -86 58.5t28.5 85t82.5 26.5z" />
    <glyph glyph-name="perthousand" unicode="&#x2030;" horiz-adv-x="2023" 
d="M1720 389q-157 0 -157 -184q-1 -131 120 -131q74 0 114 53t40 117t-28.5 104.5t-88.5 40.5zM1456 197q0 118 71.5 198t192.5 80q224 0 224 -211q0 -118 -77.5 -197t-191.5 -79q-219 0 -219 209zM1114 389q-158 0 -158 -184q0 -131 121 -131q110 0 132 72.5t22 116.5
t-28.5 85t-88.5 41zM850 197q0 117 71 197.5t191 80.5q225 0 225 -211q0 -118 -77 -197t-191 -79q-219 0 -219 209zM348 733q-158 0 -158 -184q0 -131 121 -131q74 0 114 54t40 116q0 63 -28.5 104t-88.5 41zM303 332q-219 0 -219 209q0 117 71 197.5t191 80.5
q225 0 225 -211q0 -116 -76.5 -196t-191.5 -80zM1094 885q56 0 71 -45l-782 -891q-34 -39 -75.5 -39t-61.5 41l762 872q27 29 45.5 45.5t40.5 16.5z" />
    <glyph glyph-name="guilsinglleft" unicode="&#x2039;" horiz-adv-x="630" 
d="M393 68q0 -49 -65 -54l-185 303q-20 31 -20 60t11 46t34 40l315 325q47 -6 47 -51q0 -36 -47 -90l-229 -262l125 -262q14 -27 14 -55z" />
    <glyph glyph-name="guilsinglright" unicode="&#x203a;" horiz-adv-x="630" 
d="M238 732q0 49 65 54l184 -303q21 -37 21 -68q0 -32 -45 -77l-318 -326q-45 6 -45 46t47 96l228 262l-125 262q-12 26 -12 54z" />
    <glyph glyph-name="Euro" unicode="&#x20ac;" horiz-adv-x="878" 
d="M281 381v-43q0 -8 2 -19h327q13 -15 13 -38q0 -52 -68 -52l-260 2q41 -145 203 -145q131 0 252 55q22 -18 22 -47q0 -106 -297 -106q-267 0 -309 245h-115q-12 14 -12 41q0 45 49 45h70v3q0 72 12 133l-90 2q-12 12 -12 41q0 43 49 43h76q47 135 153.5 208.5t267.5 73.5
q106 0 148.5 -20.5t42.5 -60.5t-31 -58q-77 29 -176 29q-208 0 -283 -172h240l100 2q12 -16 13 -41q0 -54 -66 -49h-313q-8 -39 -8 -72z" />
    <glyph glyph-name="trademark" unicode="&#x2122;" horiz-adv-x="1363" 
d="M322 543q-35 0 -42.5 15t-7.5 40v268q0 43 2 107l-147 2q-14 20 -14 43t21.5 30t62.5 7h252l75 2q11 -25 11 -45q0 -40 -78 -39h-76v-420q-24 -10 -59 -10zM590 1017q0 26 23.5 33t87 7t81.5 -29l160 -278l166 278q18 28 57 28t66 -20v-49l-2 -430q-19 -12 -63 -12
t-44 41v317l-149 -250q-21 -14 -49 -14t-37.5 7t-20.5 24l-129 233v-350q-18 -8 -33 -8q-39 0 -47 28q-4 10 -4 23v176l2 203l-51 2q-14 14 -14 40z" />
    <glyph glyph-name="NUL" horiz-adv-x="0" 
 />
    <glyph glyph-name="HT" horiz-adv-x="0" 
 />
    <glyph glyph-name="DC3" horiz-adv-x="1865" 
 />
    <glyph glyph-name="notequal" horiz-adv-x="1124" 
d="M37 760h604l164 291h108l-161 -291h335v-96h-391l-153 -279h544v-94h-602l-163 -291h-109l164 291h-340v94h393l158 279h-551v96z" />
    <glyph glyph-name="infinity" horiz-adv-x="1460" 
d="M109 526q1 -127 71 -208q70 -80 162 -80t166 86q47 55 117 266q-95 215 -267 215q-106 0 -177.5 -76t-71.5 -203zM1078 201q106 0 190 88q82 88 82 236t-86 245q-90 96 -197 96q-129 0 -213 -147q-26 -49 -104 -254q76 -156 147 -211q75 -53 181 -53zM1034 944
q152 0 262 -116t111 -299q0 -183 -109 -303t-239 -120q-102 0 -172 62t-166 225q-65 -127 -141 -180t-183 -53q-145 0 -244 104t-99 266t92 264.5t214 102.5q84 0 152 -45q67 -47 141 -184q68 156 149 216q80 60 232 60z" />
    <glyph glyph-name="lessequal" horiz-adv-x="1124" 
d="M59 96h1008v-96h-1008v96zM1067 1272v-111l-844 -416l844 -417v-107l-1008 500v49z" />
    <glyph glyph-name="greaterequal" horiz-adv-x="1124" 
d="M59 96h1008v-96h-1008v96zM59 221v111l842 416l-842 417v107l1008 -500v-49z" />
    <glyph glyph-name="partialdiff" horiz-adv-x="1011" 
d="M627 854q-90 0 -177 -62t-152 -221t-65 -291q0 -131 55.5 -192t139.5 -61q123 0 252 129q161 166 233 473q-39 109 -116 168q-80 57 -170 57zM596 1280q-191 0 -301 -160h-45q76 158 164 230t217 71q88 0 175 -50q189 -109 189 -456t-153 -630q-172 -315 -439 -316
q-154 0 -247 90q-90 90 -90 244q0 107 38 211t103 184q68 80 128 119t142 70q69 20 145 20q76 1 144 -31t104 -70t60 -89q12 113 12 184q0 180 -94 281q-96 98 -252 98z" />
    <glyph glyph-name="summation" horiz-adv-x="1460" 
d="M43 -205v37l670 832l-670 817v37h1278l27 -338h-39q-18 141 -78 196q-59 59 -172 60h-740l562 -686l-629 -779h817q69 -1 139 23t109 71.5t63 151.5l39 -6l-63 -416h-1313z" />
    <glyph glyph-name="product" horiz-adv-x="1685" 
d="M1239 1438h-795v-1448q0 -68 30 -112t169 -44v-39h-598v39h37q86 0 125 35q37 37 37 121v1333q0 82 -37 119t-125 37h-37v37h1595v-37h-34q-88 0 -125 -36t-37 -120v-1333q0 -122 80 -145q38 -11 116 -11v-39h-598v39h35q86 0 125 35q37 37 37 121v1448z" />
    <glyph glyph-name="pi" horiz-adv-x="1124" 
d="M840 -31q-76 0 -128 72t-52 231t38 498h-260q-31 -526 -75 -663t-121 -138q-35 1 -59 23q-23 22 -23 56t7 49t57 85t84 190t46 398h-45q-71 0 -117 -28t-98 -115h-39q55 174 131 239q55 49 160 49h703v-145h-242q-35 -252 -35 -438q0 -102 36 -148t85 -45q100 0 121 117
h35q-14 -154 -76 -221q-57 -66 -133 -66z" />
    <glyph glyph-name="integral" horiz-adv-x="561" 
d="M248 -2q0 22 -14 150q-40 365 -33 795q6 430 22 603q25 186 81 252t118 66t99 -35q38 -35 38 -78t-27 -70q-50 -63 -141 7q-20 20 -39 20q-39 0 -41 -63q0 -34 24 -296t23 -422t-16 -681q-10 -297 -90 -400q-51 -66 -133 -65q-53 0 -86 32.5t-33 82.5t25 77
q27 27 65.5 27t67.5 -32t51 -31q39 0 39 61z" />
    <glyph glyph-name="Omega" horiz-adv-x="1572" 
d="M1518 0h-568l25 279q137 57 205 165t67 310q0 272 -131 417q-133 145 -332 145t-329 -147q-135 -147 -136 -401q0 -205 70 -319q66 -117 207 -170l25 -279h-566v279h35q2 -59 39 -88t131 -29h270v69q-209 59 -325 209q-115 150 -115 348q0 250 186 424t506 174
q195 0 359 -73.5t252 -212.5t88 -328t-121 -344q-123 -154 -318 -197l-8 -69h275q94 0 129 28t41 89h39v-279z" />
    <glyph glyph-name="radical" horiz-adv-x="1124" 
d="M1051 1870h73l-313 -1948l-496 1020l-196 -90l-35 63l301 152l406 -823z" />
    <glyph glyph-name="approxequal" horiz-adv-x="1124" 
d="M150 414q76 80 167 80t177 -42t185 -94q188 -99 275 -12q56 55 70 141h49q-20 -161 -99 -241t-172 -80t-173 41t-148 78q-131 75 -201 75t-120 -47q-49 -49 -62 -141h-47q23 168 99 242zM280 748q-70 0 -120 -48q-49 -49 -62 -139h-47q23 166 99 244t164 78t177 -42
t185 -94q96 -53 168 -53t110 39q54 51 70 141h49q-20 -162 -98 -240t-174 -79q-96 0 -174 40t-146 77q-131 76 -201 76z" />
    <glyph glyph-name="Delta" horiz-adv-x="1253" 
d="M989 82l-397 967l-440 -967h837zM1227 0h-1200l626 1386z" />
    <glyph glyph-name="nonbreakingspace" horiz-adv-x="391" 
 />
    <glyph glyph-name="lozenge" horiz-adv-x="1011" 
d="M496 1325l-340 -616l340 -615l358 615zM549 1421l418 -712l-418 -709h-111l-391 709l391 712h111z" />
    <glyph glyph-name="apple" horiz-adv-x="1417" 
d="M373 395q0 121 57 219q66 104 174.5 153.5t233.5 49.5t207.5 -66t82.5 -190t-92 -208t-241 -124q-29 -6 -29 -20q0 -27 55 -27t103 33q74 -23 74 -97t-76 -120.5t-216 -46.5q-292 0 -463 145t-171 398q0 175 97 285t254 110q156 0 179 -94q-57 -23 -158.5 -108.5
t-101.5 -309.5q0 -66 20.5 -121t47.5 -59q-37 77 -37 198zM698 1309q107 0 164 -80q109 38 211.5 98.5t140.5 95.5q86 -12 129 -64t43 -129q0 -157 -198 -204q-118 -30 -301 -35q-21 -87 -74 -160q-112 0 -195 -30q39 41 63 101t24 118t-31 95.5t-78 47.5q43 -12 66.5 -48.5
t23.5 -72.5t-16 -65q-104 -20 -162 -70q-53 10 -87 48t-34 91.5t41 88t102 34.5h20q21 0 34 -2q-15 15 -15 51t33 63.5t96 27.5z" />
    </font>
</defs>
</svg>
